<svg fill="none" height="160" viewBox="0 0 224 160" width="224" xmlns="http://www.w3.org/2000/svg"><rect fill="#fff" height="160" rx="16" width="224"/><g fill="#15003e"><path d="m63.6216 105.606h6.0512v.485c0 1.107-.1246 2.077-.3877 2.921-.2493.79-.6785 1.523-1.2878 2.202-1.357 1.537-3.0879 2.299-5.1926 2.299-2.0494 0-3.808-.734-5.2619-2.216-1.4678-1.482-2.1878-3.268-2.1878-5.359 0-2.132.7477-3.932 2.2293-5.414 1.4817-1.4816 3.2956-2.2293 5.4281-2.2293 1.1493 0 2.2155.2354 3.2125.7062.9554.4708 1.8832 1.2181 2.7971 2.2711l-1.5786 1.509c-1.2047-1.606-2.6725-2.395-4.3895-2.395-1.5508 0-2.8525.54-3.9048 1.606-1.0524 1.052-1.5786 2.368-1.5786 3.946 0 1.634.5816 2.977 1.7586 4.03 1.0939.983 2.2847 1.467 3.5587 1.467 1.0939 0 2.0632-.36 2.9355-1.093.8724-.734 1.357-1.621 1.454-2.645h-3.6557z"/><path d="m77.5101 98.5857h2.2156v14.6643h-2.2156z"/><path d="m92.3541 100.663v12.573h-2.2155v-12.573h-3.3648v-2.0772h8.9452v2.0772zm20.7009-1.2879v2.6169c-1.274-1.066-2.603-1.606-3.974-1.606-1.509 0-2.769.54-3.808 1.62-1.038 1.08-1.55 2.396-1.55 3.946 0 1.537.512 2.839 1.55 3.891 1.039 1.053 2.313 1.579 3.822 1.579.776 0 1.44-.125 1.98-.374.305-.125.623-.291.942-.512.332-.222.665-.471 1.025-.776v2.673c-1.261.72-2.59 1.08-3.988 1.08-2.091 0-3.878-.734-5.359-2.188-1.468-1.468-2.216-3.254-2.216-5.331 0-1.869.623-3.531 1.856-4.999 1.523-1.7861 3.489-2.6862 5.899-2.6862 1.315 0 2.589.3462 3.821 1.0663z"/></g><path d="m122.455 106.12c0 1.62.54 2.949 1.634 3.987 1.08 1.039 2.327 1.565 3.753 1.565 1.537 0 2.838-.526 3.891-1.592 1.052-1.08 1.592-2.382 1.592-3.933 0-1.564-.526-2.866-1.564-3.932-1.039-1.067-2.327-1.593-3.85-1.593s-2.811.526-3.863 1.593c-1.066 1.066-1.593 2.354-1.593 3.905zm-2.229-.028c0-2.063.762-3.836 2.271-5.317 1.509-1.482 3.309-2.2159 5.428-2.2159 2.091 0 3.877.7477 5.373 2.2429 1.495 1.496 2.243 3.282 2.243 5.387s-.748 3.891-2.257 5.359c-1.51 1.481-3.337 2.215-5.484 2.215-1.897 0-3.586-.651-5.095-1.966-1.648-1.454-2.479-3.351-2.479-5.705z" fill="#0fce7c"/><path d="m143.228 98.5857h2.216v14.6643h-2.216z" fill="#15003e"/><path d="m154.015 113.25v-15.6614l10.69 11.1884v-10.1914h2.215v15.5504l-10.69-11.147v10.261z" fill="#15003e"/><path d="m116.78 63.3447 2.382 4.6942-1.814 7.6851-4.306-3.5172.761-5.6357z" fill="#fff"/><path d="m110.424 61.7661c-.498 0-.9-.4016-.9-.9001v-7.0758c0-.4985.402-.9001.9-.9001.499 0 .901.4016.901.9001v7.0758c-.014.4985-.416.9001-.901.9001z" fill="#15003e"/><path d="m111.865 61.7662h-2.784c-.498-.0139-.886-.4154-.886-.9139.014-.4847.402-.8724.886-.8862h2.784c.498.0138.886.4154.886.9139-.014.4985-.416.8862-.886.8862z" fill="#15003e"/><path d="m116.78 63.3449 2.95-2.7833c-2.257-2.257-5.387-3.6556-8.821-3.6556-6.896 0-12.4898 5.5942-12.4898 12.49s5.5938 12.49 12.4898 12.49c2.576 0 4.833.9416 6.813-.3877l2.465.3462-.07-4.0157-7.075-5.608 1.523-7.1589z" fill="#fff"/><path d="m110.909 83.1043c-7.56 0-13.7084-6.148-13.7084-13.7085s6.1484-13.7085 13.7084-13.7085c3.656 0 7.104 1.4262 9.693 4.0156l.886.8862-3.877 3.6418-1.675-1.7863 1.98-1.8694c-1.98-1.5924-4.431-2.4509-7.021-2.4509-6.203 0-11.2574 5.0542-11.2574 11.2576 0 6.2035 5.0544 11.2577 11.2574 11.2577" fill="#15003e"/><path d="m117.791 76.0563-1.758-1.7032c1.301-1.3432 2.007-3.1018 2.007-4.9573 0-1.9385-.761-3.7663-2.16-5.1095l-.914-.9001.983-.9277.845.8862.803-.8308c1.87 1.8139 2.908 4.2649 2.908 6.8681-.014 2.5063-.969 4.8741-2.714 6.6743z" fill="#0fce7c"/><path d="m108.098 69.3961c0-1.5509 1.26-2.8248 2.825-2.8248 1.551 0 2.825 1.2601 2.825 2.8248 0 1.5508-1.26 2.8248-2.825 2.8248-1.565-.0139-2.825-1.274-2.825-2.8248z" fill="#eff4ee"/><path d="m110.909 67.8035c-.872 0-1.592.7201-1.592 1.5924 0 .8724.72 1.5924 1.592 1.5924s1.592-.72 1.592-1.5924c0-.8862-.706-1.5924-1.592-1.5924zm0 5.6357c-2.229 0-4.043-1.8139-4.043-4.0433s1.814-4.0433 4.043-4.0433 4.043 1.8139 4.043 4.0433-1.814 4.0433-4.043 4.0433zm8.834-12.8777-7.131 6.5912z" fill="#15003e"/><path d="m118.913 59.6614 1.661 1.8001-7.131 6.5912-1.662-1.8001z" fill="#15003e"/><path d="m112.238 71.8745 5.124 3.8495 2.769 2.077v5.2896l-5.552-.2631" fill="#fff"/><path d="m121.35 83.1042h-10.662v-2.4509h8.211v-2.2293l-7.394-5.5665 1.468-1.9525 8.377 6.3004z" fill="#15003e"/><path d="m122.222 54.4689.983-.9831.984.9831-.984.9832zm-4.223-4.7357.471-.4707.471.4707-.471.4708z" fill="#25e899"/><path d="m123.814 45.6068c0-.3877-.318-.7062-.706-.7062-.387 0-.706.3185-.706.7062s.319.7062.706.7062c.388 0 .706-.3046.706-.7062z" fill="#25e899"/><path d="m106.16 64.2448c-.499 0-.9-.4016-.9-.9001v-9.5544c.013-.4985.415-.8862.914-.8862.484.0138.872.4015.886.8862v9.5544c0 .4985-.402.9001-.9.9001z" fill="#15003e"/></svg>