<svg fill="none" height="160" viewBox="0 0 224 160" width="224" xmlns="http://www.w3.org/2000/svg" xmlns:xlink="http://www.w3.org/1999/xlink"><clipPath id="a"><path d="m32 55h159.8v49.9375h-159.8z"/></clipPath><rect fill="#fff" height="160" rx="16" width="224"/><g clip-path="url(#a)"><g fill="#594f4f"><path d="m94.4347 86.1405v-16.0824h3.0219v9.8595l4.9684-6.1974h3.79l-5.096 6.1974 5.121 6.2229h-3.79l-4.9934-6.2229v6.2229z"/><path d="m116.791 79.9174c0-1.0499-.358-1.9462-1.101-2.6889s-1.613-1.1268-2.663-1.1268-1.921.3841-2.664 1.1268c-.742.7427-1.101 1.639-1.101 2.6889 0 1.0756.359 1.9719 1.101 2.7402.743.7427 1.614 1.1268 2.664 1.1268 1.075 0 1.946-.3841 2.663-1.1268.743-.7683 1.101-1.6646 1.101-2.7402zm3.15 0c0 1.8695-.691 3.4316-2.048 4.6865-1.383 1.2548-2.997 1.8951-4.866 1.8951-1.844 0-3.483-.6403-4.866-1.8951-1.383-1.2805-2.074-2.8426-2.074-4.6865 0-1.8438.691-3.4059 2.049-4.6608 1.382-1.2804 2.996-1.9207 4.865-1.9207 1.87 0 3.483.6403 4.866 1.9207 1.383 1.2805 2.074 2.817 2.074 4.6608z"/><path d="m121.76 86.1403v-16.8507h3.021v16.8507z"/><path d="m139.967 79.9172c0 .4098-.051.8707-.179 1.3829h-9.962c.205.7427.666 1.3573 1.332 1.8439.666.4865 1.383.717 2.151.717.692 0 1.383-.1793 1.998-.5122.64-.3329 1.126-.7682 1.459-1.306l2.049 1.8182c-.64.8195-1.434 1.4597-2.382 1.9463-.973.461-1.997.6914-3.124.6914-1.869 0-3.483-.6402-4.763-1.895-1.306-1.2805-1.946-2.8426-1.946-4.6865 0-1.8694.665-3.4316 1.946-4.6608 1.332-1.2548 2.894-1.8951 4.763-1.8951 1.818 0 3.406.6403 4.687 1.9207 1.357 1.2804 1.971 2.7914 1.971 4.6352zm-10.064-1.2036h6.863c-.179-.7939-.589-1.4597-1.229-1.9719s-1.357-.7683-2.177-.7683c-.819 0-1.536.2561-2.202.7939-.64.4866-1.076 1.1524-1.255 1.9463z"/><path d="m141.811 86.1403v-16.8507h3.022v10.6277l4.968-6.1974h3.79l-5.096 6.1974 5.122 6.223h-3.79l-4.994-6.223v6.223z"/><path d="m154.104 76.2297v-2.5097h1.152v-2.8938h2.996v2.9194h2.1v2.5097h-2.1v6.6327c0 .2561.103.4866.308.6658.204.1793.461.2817.717.2817.358 0 .614-.0512.794-.1792l.589 2.4072c-.615.3073-1.358.461-2.228.461-.948 0-1.716-.3073-2.305-.9219-.589-.6147-.897-1.4085-.897-2.3817v-6.9912z"/><path d="m161.94 73.72h3.022v12.4204h-3.022zm.256-1.4597c-.358-.3585-.538-.7683-.538-1.2804 0-.4866.18-.922.538-1.2805.359-.3585.794-.5378 1.281-.5378.512 0 .921.1793 1.28.5378s.538.7683.538 1.2805c0 .4865-.179.9219-.538 1.2804s-.768.5378-1.28.5378c-.513 0-.922-.1793-1.281-.5378z"/><path d="m188.548 79.9174c0-1.0499-.359-1.9462-1.101-2.6889-.743-.7427-1.614-1.1268-2.664-1.1268s-1.92.3841-2.663 1.1268-1.101 1.639-1.101 2.6889c0 1.0756.358 1.9719 1.101 2.7402.743.7427 1.613 1.1268 2.663 1.1268 1.076 0 1.947-.3841 2.664-1.1268.742-.7683 1.101-1.6646 1.101-2.7402zm3.124 0c0 1.8695-.691 3.4316-2.049 4.6865-1.383 1.2548-2.996 1.8951-4.865 1.8951-1.844 0-3.483-.6403-4.866-1.8951-1.383-1.2805-2.074-2.8426-2.074-4.6865 0-1.8438.691-3.4059 2.048-4.6608 1.383-1.2804 2.997-1.9207 4.866-1.9207 1.87 0 3.483.6403 4.866 1.9207 1.408 1.2805 2.074 2.817 2.074 4.6608z"/><path d="m175.103 73.72-2.945 6.351h-.077l-2.945-6.351h-3.099l6.07 12.5996 6.12-12.5996z"/></g><path d="m69.799 80.1994 9.9875 9.9875c-.5122 1.1268-1.1012 2.228-1.767 3.2779l-13.2655-13.2654 13.4191-13.4191c.6403 1.0499 1.2293 2.1511 1.7414 3.3291z" fill="#63e495"/><path d="m56.175 101.865 2.9707 2.97c1.4597-.128 2.9194-.384 4.2767-.742l-7.2474-7.2478z" fill="#5b4f4f"/><path d="m56.175 73.6435 14.4947-14.4947c-1.0243-.6914-2.0743-1.3061-3.2267-1.8182l-11.268 11.2935z" fill="#497a81"/><path d="m56.175 63.5791 7.6315-7.6571c-1.3573-.3841-2.7657-.6914-4.1998-.8195l-3.4317 3.4316z" fill="#5b4f4f"/><path d="m56.175 91.8001 10.9863 10.9859c1.1268-.512 2.228-1.126 3.2523-1.767l-14.2386-14.2382z" fill="#497a81"/><path d="m76.0476 63.8863c-.7939-.9219-1.6134-1.767-2.5097-2.5609l-17.3629 17.3373v3.0731l17.1068 17.1068c.922-.7939 1.7415-1.639 2.5353-2.5353l-16.108-16.108z" fill="#00b0a9"/><path d="m56.175 55c-1.2036.0256-2.3816.1793-3.5596.3841v49.1949c1.1524.205 2.356.333 3.5596.384v-3.073-5.0193-5.0194-5.0193-5.0194-3.0731-5.0962-5.0193-5.045-5.045z" fill="#db5a3f"/><path d="m79.8634 80.1992 1.9718 1.9719c-.128 1.4597-.3841 2.9194-.7426 4.2767l-6.2486-6.2486 6.351-6.3511c.3329 1.4085.589 2.8426.6915 4.3536z" fill="#a7ead3"/><path d="m35.2267 67.7275v24.4822c-2.0743-3.6108-3.2267-7.7851-3.2267-12.2411 0-4.4559 1.1524-8.6302 3.2267-12.2411z" fill="#ffbc7c"/><path d="m42.3717 59.7122v40.4878c-1.3061-.922-2.4585-1.9719-3.5597-3.1243v-34.2392c1.1012-1.1268 2.2792-2.2024 3.5597-3.1243z" fill="#faa050"/><path d="m49.2606 56.2036v47.5044c-1.2293-.409-2.4329-.896-3.5597-1.459v-44.5601c1.178-.5634 2.3304-1.0755 3.5597-1.4853z" fill="#f37c56"/></g></svg>