<svg width="24" height="24" viewBox="0 0 24 24" fill="none" xmlns="http://www.w3.org/2000/svg">
<g filter="url(#filter0_i_640_65)">
<path d="M12.244 23.4891C18.4546 23.4891 23.4893 18.4545 23.4893 12.2439C23.4893 6.03332 18.4546 0.998657 12.244 0.998657C6.03344 0.998657 0.998779 6.03332 0.998779 12.2439C0.998779 18.4545 6.03344 23.4891 12.244 23.4891Z" fill="url(#paint0_linear_640_65)"/>
</g>
<path d="M8.56445 7.85973H7.13447C6.7786 7.85973 6.48743 8.1509 6.48743 8.50678C6.48743 8.86265 6.7786 9.15383 7.13447 9.15383H8.56445C8.8168 9.72323 9.3862 10.1244 10.0462 10.1244H10.6932C11.3532 10.1244 11.9226 9.72323 12.175 9.15383H17.4872C17.8431 9.15383 18.1343 8.86265 18.1343 8.50678C18.1343 8.1509 17.8431 7.85973 17.4872 7.85973H12.175C11.9226 7.29033 11.3532 6.88916 10.6932 6.88916H10.0462C9.3862 6.88916 8.8168 7.29033 8.56445 7.85973ZM10.6932 8.8303H10.0462C9.86501 8.8303 9.72266 8.68795 9.72266 8.50678C9.72266 8.32561 9.86501 8.18325 10.0462 8.18325H10.6932C10.8744 8.18325 11.0168 8.32561 11.0168 8.50678C11.0168 8.68795 10.8744 8.8303 10.6932 8.8303Z" fill="#25EDBC"/>
<path d="M13.0938 11.4183H7.13447C6.7786 11.4183 6.48743 11.7095 6.48743 12.0654C6.48743 12.4212 6.7786 12.7124 7.13447 12.7124H13.0808C13.3202 13.2818 13.8896 13.683 14.5432 13.683H15.242C15.889 13.683 16.4455 13.2948 16.6978 12.7124H17.4808C17.8366 12.7124 18.1278 12.4212 18.1278 12.0654C18.1278 11.7095 17.8366 11.4183 17.4808 11.4183H16.7043C16.4649 10.8489 15.8955 10.4478 15.242 10.4478H14.5432C13.8961 10.4478 13.3397 10.836 13.0873 11.4183H13.0938ZM14.5496 11.7418H15.2484C15.4102 11.7418 15.5461 11.8777 15.5461 12.0912C15.5461 12.253 15.4102 12.3889 15.2484 12.3889H14.5496C14.3879 12.3889 14.252 12.253 14.252 12.0395C14.252 11.8777 14.3879 11.7418 14.5496 11.7418Z" fill="#25EDBC"/>
<path d="M9.85855 14.9773H7.13447C6.7786 14.9773 6.48743 15.2685 6.48743 15.6243C6.48743 15.9802 6.7786 16.2714 7.13447 16.2714H9.85207C10.0915 16.8408 10.6609 17.242 11.3144 17.242H12.0132C12.6603 17.242 13.2167 16.8537 13.4691 16.2714H17.4872C17.8431 16.2714 18.1343 15.9802 18.1343 15.6243C18.1343 15.2685 17.8431 14.9773 17.4872 14.9773H13.4755C13.2361 14.4079 12.6667 14.0067 12.0132 14.0067H11.3144C10.6674 14.0067 10.1109 14.3949 9.86501 14.9773H9.85855ZM11.3079 15.3008H12.0067C12.1685 15.3008 12.3044 15.4367 12.3044 15.6502C12.3044 15.812 12.1685 15.9479 12.0067 15.9479H11.3079C11.1462 15.9479 11.0103 15.812 11.0103 15.5984C11.0103 15.4367 11.1462 15.3008 11.3079 15.3008Z" fill="#25EDBC"/>
<defs>
<filter id="filter0_i_640_65" x="0.998779" y="0.998657" width="22.4905" height="23.2402" filterUnits="userSpaceOnUse" color-interpolation-filters="sRGB">
<feFlood flood-opacity="0" result="BackgroundImageFix"/>
<feBlend mode="normal" in="SourceGraphic" in2="BackgroundImageFix" result="shape"/>
<feColorMatrix in="SourceAlpha" type="matrix" values="0 0 0 0 0 0 0 0 0 0 0 0 0 0 0 0 0 0 127 0" result="hardAlpha"/>
<feOffset dy="0.749682"/>
<feGaussianBlur stdDeviation="1.49936"/>
<feComposite in2="hardAlpha" operator="arithmetic" k2="-1" k3="1"/>
<feColorMatrix type="matrix" values="0 0 0 0 0.145098 0 0 0 0 0.929412 0 0 0 0 0.737255 0 0 0 1 0"/>
<feBlend mode="normal" in2="shape" result="effect1_innerShadow_640_65"/>
</filter>
<linearGradient id="paint0_linear_640_65" x1="11.7085" y1="3.40835" x2="12.233" y2="25.0764" gradientUnits="userSpaceOnUse">
<stop stop-color="#000E0A"/>
<stop offset="1" stop-color="#25EDBC"/>
</linearGradient>
</defs>
</svg>
