<svg fill="none" height="160" viewBox="0 0 224 160" width="224" xmlns="http://www.w3.org/2000/svg"><rect fill="#fff" height="160" rx="16" width="224"/><g clip-rule="evenodd" fill-rule="evenodd"><path d="m175.01 88.7204h3.573v-6.4546c0-4.8038-2.39-5.9864-5.198-5.9864-1.429 0-2.76.4435-3.819 1.823l-.123-1.552h-3.203v12.17h3.499v-6.2821c0-1.6013 1.108-2.9808 2.758-2.9808 1.676 0 2.513.936 2.513 2.833zm-16.653-12.1453h-3.302v12.1453h3.548v-6.3314c0-1.823 1.306-2.8084 2.833-2.8084.714 0 1.38.1972 1.946.616l1.479-2.8084c-.838-.7391-1.824-1.1088-2.981-1.1088-1.38 0-2.439.4682-3.252 1.6261zm-12.269 9.386c-2.167 0-3.054-1.6504-3.054-3.3012 0-1.5273.96-3.2027 3.054-3.2027 2.143 0 3.08 1.6754 3.08 3.2027 0 1.7245-.912 3.3012-3.08 3.3012zm0 3.1534c4.139 0 6.676-2.5621 6.676-6.4546 0-3.6706-2.611-6.3805-6.676-6.3805-4.04 0-6.651 2.7099-6.651 6.3805 0 3.8925 2.513 6.4546 6.651 6.4546zm-7.414-1.9458-2.243-2.3158c-.591.591-1.675.9113-2.463.9113-1.651 0-3.129-1.1088-3.129-3.0549 0-2.0449 1.429-3.1781 3.203-3.1781.763 0 1.528.1479 2.291.7145l1.971-2.2421c-1.257-1.3551-2.636-1.7245-4.41-1.7245-3.547 0-6.627 2.3405-6.627 6.4299 0 4.385 3.105 6.4052 6.652 6.4052 1.576.0003 3.276-.3938 4.755-1.9455zm-19.561-1.3307c-1.651 0-3.277-1.0592-3.277-3.1781 0-2.3155 1.676-3.1287 3.277-3.1287 1.897 0 2.981 1.3798 2.981 3.1287 0 1.8477-1.133 3.1781-2.981 3.1781zm-6.898 8.2531h3.572v-6.553c1.06 1.1826 2.538 1.552 3.819 1.552 3.572 0 6.06-2.4389 6.06-6.4299 0-3.769-2.439-6.3558-6.011-6.3558-1.552 0-2.931.3694-4.04 1.823l-.222-1.552h-3.178zm-8.967-8.13c-2.168 0-3.055-1.6504-3.055-3.3012 0-1.5273.96-3.2027 3.055-3.2027 2.143 0 3.079 1.6754 3.079 3.2027 0 1.7245-.911 3.3012-3.079 3.3012zm0 3.1534c4.138 0 6.676-2.5621 6.676-6.4546 0-3.6706-2.611-6.3805-6.676-6.3805-4.0405 0-6.6519 2.7099-6.6519 6.3805 0 3.8925 2.5127 6.4546 6.6519 6.4546zm-18.6001-8.7948v-5.1982h4.2866c1.8477 0 2.759 1.232 2.759 2.6115s-.9113 2.5867-2.759 2.5867zm0 3.5228h4.2866c4.3851-.0738 6.6024-2.7096 6.6024-6.1833 0-3.3506-2.168-6.1836-6.6024-6.1836h-8.1297v17.2448h3.8431z" fill="#1e154a"/><path d="m50.4016 78.2799c.2703.7462.7941 1.4619 1.1962 2.135 3.0228 5.059 9.318 7.743 15.2134 3.3797 9.5306-7.0518 8.0562-14.0418-3.7235-15.3838-11.7793-1.342-16.5414 3.1599-12.6861 9.8691z" fill="#4fc4fa"/><path d="m46.9758 84.3291c1.3423 11.779 8.1579 13.1225 15.3838 3.7233 5.4807-7.1291 3.8791-18.5062-7.5875-15.8897-4.6171 1.0535-8.6393 4.7654-7.7963 12.1664z" fill="#ffb224"/><path d="m64.0136 85.3485c.828-1.7403 1.2956-3.5811 1.3708-5.327-1.0695 1.2046-1.933 1.9327-3.5477 3.1254-1.6151 1.193-2.5362 1.8456-3.6314 2.5118 1.8212.4979 3.8042.4545 5.8083-.3102z" fill="#4f8923"/><path d="m45.5247 78.7114c4.7277 10.8726 6.5828 11.5576 16.3121 4.4353 9.7293-7.1226 5.6117-11.6329-4.6518-16.0959-10.8721-4.7277-16.3879.7876-11.6603 11.6606z" fill="#fa2dc7"/><path d="m65.3844 80.0216c4.2901-4.855 1.2391-8.4248-5.7485-11.8429-7.6449-.1213-11.3304 2.7691-10.4042 7.1824l-.0003.0006.0125.0574-.0041-.0208c.8851 4.131 4.7892 9.1252 8.9634 10.2599.5208.1303 6.5247-4.4362 7.1812-5.6366z" fill="#4d22c3"/><path d="m49.2311 75.3623c-1.3298 1.5422-2.217 3.6287-2.35 6.3353 3.2343 6.7148 5.4377 7.6877 11.3241 3.9612l-.0026-.0006c-4.1864-1.1383-8.1018-6.158-8.9715-10.2959z" fill="#fa1f1c"/><path d="m58.2053 85.6586c.0455.0113.1324-.0131.254-.0678 1.2727-.5726 6.3267-4.4743 6.9251-5.57.4462-7.0173-4.9272-9.5309-10.8086-7.948-2.0856.5612-3.8916 1.604-5.3446 3.2884.8697 4.1385 4.7878 9.1594 8.9741 10.2974z" fill="#1e154a"/><path d="m60.4502 81.9556c.0173.0732.0232.1499.031.2243.121 1.1793.3768 2.5222-1.4616 3.3503-.7918.3566-1.8843.0493-3.0743-.6773-1.7837-1.0892-3.7345-3.1079-4.9302-5.0311-4.2447-6.8269 5.6643-10.0318 9.1564-6.3442 1.4372 1.5175 1.6811 4.0861.2594 5.9138-.5684.7299-.2103 1.5863.0193 2.5642z" fill="#fff"/></g></svg>