<svg width="19" height="18" viewBox="0 0 19 18" fill="none" xmlns="http://www.w3.org/2000/svg">
<path fill-rule="evenodd" clip-rule="evenodd" d="M1.87323 1.875C1.87323 1.56434 2.12507 1.3125 2.43573 1.3125H17.4357C17.7464 1.3125 17.9982 1.56434 17.9982 1.875V6.375C17.9982 6.68566 17.7464 6.9375 17.4357 6.9375H2.43573C2.12507 6.9375 1.87323 6.68566 1.87323 6.375V1.875ZM2.99823 2.4375V5.8125H16.8732V2.4375H2.99823Z" fill="#25EDBC"/>
<path fill-rule="evenodd" clip-rule="evenodd" d="M12.0876 9.72693C12.3054 9.50953 12.6574 9.50744 12.8777 9.72223L14.5579 11.3602C14.7803 11.5771 14.7849 11.9332 14.568 12.1557C14.3512 12.3781 13.995 12.3826 13.7726 12.1658L12.4898 10.9152L9.86624 13.5344C9.64987 13.7504 9.30058 13.754 9.07976 13.5425L7.01213 11.5624L2.83551 15.782C2.61696 16.0028 2.26081 16.0046 2.04002 15.7861C1.81923 15.5675 1.81741 15.2114 2.03595 14.9906L6.6018 10.3778C6.8178 10.1596 7.16888 10.1549 7.39064 10.3672L9.46064 12.3496L12.0876 9.72693Z" fill="#25EDBC"/>
<path fill-rule="evenodd" clip-rule="evenodd" d="M17.4357 5.50197C17.7464 5.50197 17.9982 5.75381 17.9982 6.06447V15.8145C17.9982 16.1251 17.7464 16.377 17.4357 16.377C17.1251 16.377 16.8732 16.1251 16.8732 15.8145V6.06447C16.8732 5.75381 17.1251 5.50197 17.4357 5.50197Z" fill="#25EDBC"/>
<path fill-rule="evenodd" clip-rule="evenodd" d="M2.43573 5.50197C2.74639 5.50197 2.99823 5.75381 2.99823 6.06447V11.3145C2.99823 11.6251 2.74639 11.877 2.43573 11.877C2.12507 11.877 1.87323 11.6251 1.87323 11.3145V6.06447C1.87323 5.75381 2.12507 5.50197 2.43573 5.50197Z" fill="#25EDBC"/>
<path fill-rule="evenodd" clip-rule="evenodd" d="M5.25409 16.125C5.25409 15.8143 5.50593 15.5625 5.81659 15.5625H17.4358C17.7464 15.5625 17.9983 15.8143 17.9983 16.125C17.9983 16.4357 17.7464 16.6875 17.4358 16.6875H5.81659C5.50593 16.6875 5.25409 16.4357 5.25409 16.125Z" fill="#25EDBC"/>
<path fill-rule="evenodd" clip-rule="evenodd" d="M6.74823 4.125C6.74823 3.81434 7.00007 3.5625 7.31073 3.5625H15.1857C15.4964 3.5625 15.7482 3.81434 15.7482 4.125C15.7482 4.43566 15.4964 4.6875 15.1857 4.6875H7.31073C7.00007 4.6875 6.74823 4.43566 6.74823 4.125Z" fill="#25EDBC"/>
<path fill-rule="evenodd" clip-rule="evenodd" d="M4.12323 4.12373C4.12323 3.81307 4.37507 3.56123 4.68573 3.56123H5.06073C5.37139 3.56123 5.62323 3.81307 5.62323 4.12373C5.62323 4.43439 5.37139 4.68623 5.06073 4.68623H4.68573C4.37507 4.68623 4.12323 4.43439 4.12323 4.12373Z" fill="#25EDBC"/>
</svg>
