<svg width="24" height="24" viewBox="0 0 24 24" fill="none" xmlns="http://www.w3.org/2000/svg">
<path d="M11.927 0.499268C5.33986 0.499268 0 5.64842 0 12.0003C0 14.6117 0.902951 17.0194 2.42393 18.9505L0.348339 22.8466C0.224735 23.0788 0.461509 23.3372 0.715941 23.2475L5.36394 21.6036C7.2469 22.8025 9.50231 23.5014 11.927 23.5014C18.5141 23.5014 23.854 18.3522 23.854 12.0003C23.854 5.64842 18.5133 0.499268 11.927 0.499268ZM6.72439 5.64068H13.2947C13.3188 5.64068 14.1968 5.64068 14.2209 5.64146C15.9 5.66468 16.888 6.89527 16.9796 8.18778C17.0509 9.20397 16.5677 10.2573 15.4289 10.7914L12.7104 9.77517L13.7883 9.37428C14.794 9.00048 14.5316 7.55778 13.4536 7.54307C13.4456 7.54307 13.4375 7.54307 13.4295 7.54307H12.9375H8.69805V8.29536L6.72599 7.55855V6.52532C6.72599 6.23817 6.543 5.98045 6.26448 5.87751L5.6272 5.64068H6.72439ZM13.4279 18.0147H6.72439H5.68419L6.27812 17.7942C6.547 17.6943 6.72358 17.4451 6.72358 17.168V10.844L8.69564 11.577L9.95653 12.046L9.48782 12.0328C9.0536 12.0205 8.69564 12.3564 8.69564 12.7742V16.1139H13.4279C14.3814 16.1139 15.1568 15.3655 15.1568 14.4468C15.1568 13.7649 14.7177 13.1443 14.062 12.895L14.0452 12.8888L4.98269 9.51819V14.3779C4.98269 14.7331 5.28127 15.0211 5.64967 15.0211H5.94745L4.98189 15.3802L3.00984 16.1131V7.5423V6.75054L14.741 11.1087C16.1697 11.6311 17.1288 12.9724 17.1288 14.446C17.1288 16.4142 15.469 18.0147 13.4279 18.0147ZM20.8434 8.78834V16.1131L18.8713 15.3717L17.9291 15.0211H18.21C18.5751 15.0211 18.8721 14.7355 18.8721 14.3826V9.52128L16.9201 10.2473C17.3567 9.65911 17.5751 8.93079 17.5205 8.1514C17.5164 8.098 17.5116 8.04459 17.5052 7.99196L20.845 6.75054V7.5423V8.78834H20.8434Z" fill="white"/>
</svg>
