<svg width="34" height="34" viewBox="0 0 34 34" fill="none" xmlns="http://www.w3.org/2000/svg">
<g clip-path="url(#clip0_806_572)">
<path fill-rule="evenodd" clip-rule="evenodd" d="M17.0004 0.911255C7.74957 0.911255 0.249268 8.41016 0.249268 17.6624C0.249268 25.0636 5.04846 31.3424 11.7042 33.5578C12.5418 33.7127 12.8489 33.1948 12.8489 32.7523C12.8489 32.3531 12.8335 31.0339 12.8266 29.6338C8.16696 30.6473 7.18283 27.6572 7.18283 27.6572C6.42065 25.721 5.32346 25.2059 5.32346 25.2059C3.80329 24.166 5.43792 24.1883 5.43792 24.1883C7.12001 24.307 8.00503 25.9151 8.00503 25.9151C9.49867 28.4752 11.9234 27.7354 12.8796 27.3068C13.0304 26.2236 13.4645 25.4851 13.9433 25.0663C10.2232 24.6434 6.31177 23.207 6.31177 16.7885C6.31177 14.9598 6.96646 13.4648 8.03853 12.2922C7.86404 11.8693 7.29031 10.1662 8.20046 7.85877C8.20046 7.85877 9.60755 7.40929 12.8084 9.57576C14.1443 9.20444 15.5765 9.01879 17.0004 9.01181C18.4242 9.01879 19.8578 9.20444 21.1965 9.57576C24.3932 7.40789 25.7989 7.85877 25.7989 7.85877C26.7104 10.1662 26.1367 11.8693 25.9636 12.2922C27.0371 13.4648 27.6876 14.9598 27.6876 16.7885C27.6876 23.2223 23.7692 24.6392 20.0393 25.0538C20.6395 25.5731 21.1756 26.5935 21.1756 28.1555C21.1756 30.3974 21.156 32.2009 21.156 32.7523C21.156 33.1976 21.4576 33.7211 22.3063 33.5564C28.9593 31.3382 33.7529 25.0622 33.7529 17.6637C33.7515 8.41156 26.2512 0.911255 17.0004 0.911255Z" fill="white"/>
<path d="M6.59387 24.9631C6.55757 25.0468 6.42635 25.072 6.3063 25.0147C6.18486 24.9603 6.11646 24.8458 6.15554 24.7635C6.19184 24.6783 6.32306 24.6546 6.4445 24.7118C6.56595 24.7649 6.63574 24.8793 6.59387 24.9631Z" fill="white"/>
<path d="M7.27222 25.7198C7.19265 25.7937 7.03631 25.7589 6.93022 25.643C6.81994 25.5257 6.8004 25.3694 6.88136 25.2954C6.96372 25.2214 7.11448 25.2563 7.22476 25.3736C7.33504 25.4894 7.35598 25.6444 7.27222 25.7198Z" fill="white"/>
<path d="M7.93244 26.6843C7.82914 26.7555 7.66163 26.6885 7.55833 26.5405C7.45503 26.3911 7.45503 26.2125 7.56112 26.1413C7.66442 26.0701 7.83053 26.1343 7.93523 26.2823C8.03713 26.433 8.03713 26.6117 7.93244 26.6843Z" fill="white"/>
<path d="M8.83698 27.6167C8.74485 27.7186 8.54942 27.6907 8.40704 27.5525C8.26047 27.4171 8.21999 27.2258 8.31212 27.1239C8.40564 27.022 8.60247 27.0513 8.74625 27.1881C8.89142 27.3235 8.9347 27.5162 8.83698 27.6167Z" fill="white"/>
<path d="M10.0865 28.1569C10.046 28.2882 9.85753 28.3482 9.66769 28.2924C9.47784 28.2351 9.3536 28.0816 9.39269 27.949C9.43178 27.8163 9.62162 27.7549 9.81286 27.8149C10.0013 27.8708 10.1256 28.0243 10.0865 28.1569Z" fill="white"/>
<path d="M11.4571 28.2575C11.4613 28.3957 11.3008 28.5101 11.1012 28.5129C10.9015 28.5171 10.7382 28.4054 10.7368 28.27C10.7368 28.1304 10.8946 28.0174 11.0942 28.0132C11.2938 28.009 11.4571 28.1207 11.4571 28.2575Z" fill="white"/>
<path d="M12.7333 28.0411C12.7571 28.1751 12.6189 28.3147 12.4206 28.351C12.2266 28.3873 12.0465 28.3035 12.0214 28.1695C11.9977 28.0313 12.1387 27.8931 12.3327 27.8569C12.5295 27.822 12.7082 27.9029 12.7333 28.0411Z" fill="white"/>
</g>
<defs>
<clipPath id="clip0_806_572">
<rect width="33.5022" height="33.5022" fill="white" transform="translate(0.249023 0.498047)"/>
</clipPath>
</defs>
</svg>
