<svg width="23" height="24" viewBox="0 0 23 24" fill="none" xmlns="http://www.w3.org/2000/svg">
<path d="M4.6875 20.4375L17.8125 20.4375C18.3303 20.4375 18.75 20.0178 18.75 19.5L18.75 10.125C18.75 9.60723 18.3303 9.1875 17.8125 9.1875L4.6875 9.1875C4.16973 9.1875 3.75 9.60723 3.75 10.125L3.75 19.5C3.75 20.0178 4.16973 20.4375 4.6875 20.4375Z" stroke="#25EDBC" stroke-width="1.5" stroke-linecap="round" stroke-linejoin="round"/>
<path d="M13.8462 9.1875V8.4375V9.1875ZM8.65385 9.1875L8.65385 9.9375H8.65385L8.65385 9.1875ZM8.4375 8.97115H7.6875H8.4375ZM8.4375 6.375H9.1875H8.4375ZM14.0625 6.375H13.3125V6.375L14.0625 6.375ZM14.0625 8.97115H14.8125H14.0625ZM11.25 3.5625V4.3125V3.5625ZM13.8462 8.4375L8.65385 8.4375L8.65385 9.9375L13.8462 9.9375L13.8462 8.4375ZM9.1875 8.97115L9.1875 6.375H7.6875L7.6875 8.97115H9.1875ZM13.3125 6.375L13.3125 8.97115L14.8125 8.97115L14.8125 6.375L13.3125 6.375ZM11.25 4.3125C12.3891 4.3125 13.3125 5.23591 13.3125 6.375H14.8125C14.8125 4.40749 13.2175 2.8125 11.25 2.8125V4.3125ZM9.1875 6.375C9.1875 5.23591 10.1109 4.3125 11.25 4.3125V2.8125C9.28249 2.8125 7.6875 4.40749 7.6875 6.375H9.1875ZM8.65385 8.4375C8.94858 8.4375 9.1875 8.67643 9.1875 8.97115H7.6875C7.6875 9.50485 8.12014 9.9375 8.65385 9.9375L8.65385 8.4375ZM13.8462 9.9375C14.3798 9.9375 14.8125 9.50486 14.8125 8.97115H13.3125C13.3125 8.67642 13.5514 8.4375 13.8462 8.4375L13.8462 9.9375Z" fill="#25EDBC"/>
</svg>
