<svg width="85" height="61" viewBox="0 0 85 61" fill="none" xmlns="http://www.w3.org/2000/svg">
<path d="M55.8474 27.4119L0.911621 6.22046V10.0713V51.75L10.1473 48.1837L14.6681 46.4385H13.2709C11.5445 46.4385 10.1473 45.0371 10.1473 43.3109V19.6794L52.5889 36.0644L52.6694 36.0953C55.7409 37.3093 57.7964 40.3255 57.7964 43.6428C57.7964 48.1102 54.1637 51.75 49.6998 51.75H27.5412V35.5096C27.5412 33.4751 29.2202 31.8413 31.2521 31.903L33.4473 31.9694L27.5412 29.6907L18.3055 26.1267V56.8789C18.3055 58.2281 17.4767 59.4398 16.2168 59.9259L13.4343 61H18.3031H49.6974C59.2552 61 67.0297 53.2154 67.0297 43.6452C67.0297 36.4747 62.5374 29.9539 55.8474 27.4119Z" fill="white"/>
<path d="M66.3262 13.2062C65.9 6.92247 61.2703 0.937548 53.4081 0.826102C53.2968 0.82373 49.1834 0.82373 49.0697 0.82373H18.303H13.1594L16.1456 1.97614C17.4481 2.47883 18.3054 3.73083 18.3054 5.12747V10.1449L27.5411 13.7278V10.0714H47.3954H49.6996C49.7375 10.0714 49.7754 10.0714 49.8133 10.0714C54.8621 10.1449 56.0912 17.159 51.381 18.9777L46.3345 20.9268L59.0656 25.8684C64.3986 23.2719 66.6625 18.1478 66.3262 13.2062Z" fill="white"/>
<path d="M68.7822 12.2599C68.8107 12.5184 68.8367 12.7768 68.8533 13.0353C69.1114 16.8221 68.0884 20.3671 66.0447 23.2267L75.188 19.696V43.3346C75.188 45.049 73.8003 46.4385 72.0881 46.4385H70.7738L75.1857 48.141L84.4214 51.7476V16.1321V10.0713V6.22046L68.7822 12.2599Z" fill="white"/>
</svg>
