<svg width="30" height="30" viewBox="0 0 30 30" fill="none" xmlns="http://www.w3.org/2000/svg">
<path d="M6.25 26.25L23.75 26.25C24.4404 26.25 25 25.6904 25 25L25 12.5C25 11.8096 24.4404 11.25 23.75 11.25L6.25 11.25C5.55964 11.25 5 11.8096 5 12.5L5 25C5 25.6904 5.55964 26.25 6.25 26.25Z" stroke="#FFD05A" stroke-width="2" stroke-linecap="round" stroke-linejoin="round"/>
<path d="M11.5385 11.25L18.4615 11.25C18.6209 11.25 18.75 11.1209 18.75 10.9615L18.75 7.5C18.75 5.42893 17.0711 3.75 15 3.75C12.9289 3.75 11.25 5.42893 11.25 7.5L11.25 10.9615C11.25 11.1209 11.3791 11.25 11.5385 11.25Z" stroke="#FFD05A" stroke-width="2" stroke-linecap="round" stroke-linejoin="round"/>
</svg>
