<svg width="85" height="61" viewBox="0 0 85 61" fill="none" xmlns="http://www.w3.org/2000/svg">
<path d="M55.8474 27.412L0.911621 6.2205V10.0713V51.75L10.1473 48.1837L14.6681 46.4385H13.2709C11.5445 46.4385 10.1473 45.0371 10.1473 43.3109V19.6795L52.5889 36.0645L52.6694 36.0953C55.7409 37.3094 57.7964 40.3256 57.7964 43.6429C57.7964 48.1102 54.1637 51.75 49.6998 51.75H27.5412V35.5096C27.5412 33.4751 29.2202 31.8414 31.2521 31.903L33.4473 31.9694L27.5412 29.6907L18.3055 26.1268V56.8789C18.3055 58.2282 17.4767 59.4398 16.2168 59.9259L13.4343 61.0001H18.3031H49.6974C59.2552 61.0001 67.0297 53.2154 67.0297 43.6452C67.0297 36.4747 62.5374 29.9539 55.8474 27.412Z" fill="#F3BA2C"/>
<path d="M66.3262 13.2061C65.9 6.92243 61.2703 0.937503 53.4081 0.826056C53.2968 0.823685 49.1834 0.823685 49.0697 0.823685H18.303H13.1594L16.1456 1.97609C17.4481 2.47879 18.3054 3.73078 18.3054 5.12742V10.1449L27.5411 13.7278V10.0714H47.3954H49.6996C49.7375 10.0714 49.7754 10.0714 49.8133 10.0714C54.8621 10.1449 56.0912 17.1589 51.381 18.9776L46.3345 20.9268L59.0656 25.8684C64.3986 23.2719 66.6625 18.1477 66.3262 13.2061Z" fill="#F3BA2C"/>
<path d="M68.7822 12.26C68.8107 12.5184 68.8367 12.7769 68.8533 13.0353C69.1114 16.8222 68.0884 20.3671 66.0447 23.2268L75.188 19.6961V43.3346C75.188 45.049 73.8003 46.4385 72.0881 46.4385H70.7738L75.1857 48.1411L84.4214 51.7477V16.1321V10.0713V6.2205L68.7822 12.26Z" fill="#F3BA2C"/>
</svg>
