<svg width="63" height="46" viewBox="0 0 63 46" fill="none" xmlns="http://www.w3.org/2000/svg">
<path d="M41.3856 20.5785L0.183726 4.68054V7.56946V38.837L7.1105 36.1616L10.5011 34.8523H9.45316C8.15839 34.8523 7.1105 33.801 7.1105 32.506V14.7775L38.9417 27.0697L39.002 27.0928C41.3056 28.0036 42.8473 30.2663 42.8473 32.755C42.8473 36.1064 40.1228 38.837 36.7748 38.837H20.1559V26.6534C20.1559 25.1271 21.4152 23.9015 22.939 23.9477L24.5855 23.9975L20.1559 22.288L13.2291 19.6143V42.6848C13.2291 43.697 12.6075 44.606 11.6626 44.9706L9.57572 45.7765H13.2274H36.7731C43.9414 45.7765 49.7723 39.9364 49.7723 32.7568C49.7723 27.3774 46.403 22.4855 41.3856 20.5785Z" fill="white"/>
<path d="M49.2448 9.92121C48.9251 5.20714 45.4529 0.717223 39.5562 0.633615C39.4727 0.631836 36.3877 0.631836 36.3024 0.631836H13.2274H9.36971L11.6094 1.49638C12.5862 1.8735 13.2292 2.81276 13.2292 3.86052V7.62466L20.1559 10.3126V7.56951H35.0467H36.7749C36.8033 7.56951 36.8317 7.56951 36.8601 7.56951C40.6467 7.62466 41.5685 12.8866 38.0359 14.251L34.251 15.7133L43.7993 19.4205C47.7991 17.4726 49.497 13.6284 49.2448 9.92121Z" fill="white"/>
<path d="M51.0867 9.21138C51.108 9.40528 51.1275 9.59918 51.1399 9.79308C51.3335 12.634 50.5663 15.2934 49.0335 17.4388L55.891 14.79V32.5237C55.891 33.8099 54.8502 34.8523 53.5661 34.8523H52.5804L55.8892 36.1296L62.816 38.8353V12.1163V7.56946V4.68054L51.0867 9.21138Z" fill="white"/>
</svg>
