<svg width="34" height="34" viewBox="0 0 34 34" fill="none" xmlns="http://www.w3.org/2000/svg">
<g clip-path="url(#clip0_806_566)">
<path d="M19.1459 17.0832C19.1459 22.3374 14.9163 26.5964 9.69689 26.5964C4.47892 26.5964 0.249268 22.3374 0.249268 17.0832C0.249268 11.8289 4.47892 7.56995 9.69828 7.56995C14.9162 7.56995 19.1459 11.8289 19.1459 17.0832Z" fill="white"/>
<path d="M29.5121 17.0832C29.5121 22.0289 27.3972 26.038 24.7883 26.038C22.1793 26.038 20.0645 22.0289 20.0645 17.0832C20.0645 12.1374 22.1793 8.1283 24.7883 8.1283C27.3959 8.1283 29.5121 12.1374 29.5121 17.0832Z" fill="white"/>
<path d="M33.7515 17.0832C33.7515 21.5139 33.0075 25.107 32.0903 25.107C31.1732 25.107 30.4292 21.5153 30.4292 17.0832C30.4292 12.6512 31.1732 9.05945 32.0903 9.05945C33.0075 9.05945 33.7515 12.6526 33.7515 17.0832Z" fill="white"/>
</g>
<defs>
<clipPath id="clip0_806_566">
<rect width="33.5022" height="33.5022" fill="white" transform="translate(0.249023 0.332031)"/>
</clipPath>
</defs>
</svg>
