<svg width="17" height="17" viewBox="0 0 17 17" fill="none" xmlns="http://www.w3.org/2000/svg">
<path d="M6.67682 9.92677L11.6768 4.92677M11.6768 4.92677L12.3233 5.57321C12.5185 5.76847 12.8351 5.76847 13.0304 5.57321L15.3233 3.28032C15.5185 3.08506 15.5185 2.76847 15.3233 2.57321L14.0304 1.28032C13.8351 1.08506 13.5185 1.08506 13.3233 1.28032L11.0304 3.57321C10.8351 3.76847 10.8351 4.08506 11.0304 4.28032L11.6768 4.92677ZM9.2561 13.8475L12.3233 10.7803C12.5185 10.5851 12.5185 10.2685 12.3233 10.0732L6.53037 4.28032C6.33511 4.08506 6.01853 4.08506 5.82327 4.28032L2.7561 7.34748C1.44444 8.65914 0.81322 10.5037 1.04629 12.344L1.11532 12.889C1.2873 14.2469 2.35665 15.3163 3.71459 15.4883L4.25957 15.5573C6.09984 15.7904 7.94444 15.1591 9.2561 13.8475Z" stroke="white" stroke-width="1.5" stroke-linecap="round"/>
</svg>
