<?xml version="1.0" encoding="UTF-8"?>
<svg width="22px" height="22px" viewBox="0 0 22 22" version="1.1" xmlns="http://www.w3.org/2000/svg" xmlns:xlink="http://www.w3.org/1999/xlink">
    <title>形状</title>
    <g id="页面-1" stroke="none" stroke-width="1" fill="none" fill-rule="evenodd">
        <g id="画板" transform="translate(-840.000000, -510.000000)" fill="#FFD05A" fill-rule="nonzero">
            <g id="shovel-1" transform="translate(840.000000, 510.000000)">
                <path d="M16.6489204,10.5716903 L14.5879127,8.50572607 L15.7943562,7.29638113 C16.0356449,7.39715987 16.297041,7.45762712 16.5684908,7.45762712 L18.016223,7.45762712 C18.4183708,7.45762712 18.8004113,7.29638113 19.0819148,7.01420064 L21.555124,4.53504352 C22.148292,3.94044892 22.148292,2.98305085 21.555124,2.38845625 L19.6147607,0.443426477 C19.3332572,0.161245992 18.9512167,0 18.5490689,0 C18.1469211,0 17.7648806,0.161245992 17.4833771,0.443426477 L14.9900606,2.95281722 C14.7085571,3.23499771 14.5476979,3.61795694 14.5476979,4.02107192 L14.5476979,5.43197435 C14.5476979,5.71415483 14.6080201,5.98625744 14.7186108,6.23820431 L13.5121673,7.44754924 L11.4511596,5.38158497 C10.9283674,4.8575355 10.2246087,4.56527714 9.48063521,4.56527714 C8.73666172,4.56527714 8.032903,4.8575355 7.51011082,5.39166285 L0.814349366,12.0934494 C0.29155718,12.6275767 0,13.3229501 0,14.0687128 L0,19.2084288 C0,19.9743472 0.311664572,20.6797984 0.814349366,21.1836922 C1.31703416,21.6875859 2.02079287,22 2.78487376,22 L8.032903,22 C8.7768765,22 9.48063521,21.7077416 10.0034274,21.1836922 L16.6489204,14.5222171 C17.7447732,13.4338067 17.7447732,11.6601008 16.6489204,10.5716903 Z M18.5691763,1.5016033 L18.5691763,1.5016033 L20.5095396,3.44663307 L18.0262767,5.9257902 L16.5785445,5.9257902 C16.297041,5.9257902 16.065806,5.70407696 16.065806,5.4118186 L16.065806,4.00091617 L18.5691763,1.5016033 Z M8.93773563,20.1154375 C8.69644693,20.3573065 8.37472866,20.4883188 8.032903,20.4883188 L2.78487376,20.4883188 C2.08111505,20.4883188 1.50805438,19.91388 1.50805438,19.2084288 L1.50805438,14.0687128 C1.50805438,13.726065 1.63875243,13.4035731 1.88004113,13.1617041 L8.57580258,6.42968392 C8.81709128,6.18781493 9.13880955,6.05680257 9.48063521,6.05680257 C9.82246087,6.05680257 10.1441791,6.18781493 10.3854678,6.42968392 L12.4464755,8.49564819 L9.22929281,11.720568 L10.2949846,12.7888227 L13.5121673,9.56390289 L15.5731749,11.6298672 C16.0758597,12.1337609 16.0758597,12.9399908 15.5731749,13.4438846 L8.93773563,20.1154375 Z" id="形状"></path>
            </g>
        </g>
    </g>
</svg>