<svg width="17" height="18" viewBox="0 0 17 18" fill="none" xmlns="http://www.w3.org/2000/svg">
<path d="M8.89244 1.57801L8.89212 1.57769C8.23133 0.924859 7.08161 0.924496 6.42028 1.5766C5.98504 1.99273 5.56636 2.42561 5.14828 2.85785C5.12104 2.88601 5.0938 2.91418 5.06656 2.94233C5.05051 2.92571 5.03428 2.90881 5.01778 2.89164C4.99664 2.86963 4.97505 2.84715 4.9528 2.82419C4.86822 2.73692 4.77663 2.64547 4.67718 2.56347C4.47849 2.39966 4.23495 2.26243 3.92417 2.26513C3.58993 2.24859 3.33354 2.39408 3.12633 2.56844C3.02307 2.65532 2.92803 2.75274 2.84052 2.84411C2.82905 2.85608 2.81773 2.86792 2.80654 2.87964C2.73011 2.95963 2.65953 3.0335 2.58704 3.09987L2.58675 3.10014C2.31553 3.34956 1.94195 3.7215 1.97566 4.23313C1.97763 4.54356 2.11684 4.78281 2.28051 4.97752C2.36229 5.07479 2.45309 5.16439 2.5388 5.24708C2.55367 5.26143 2.56833 5.27552 2.58279 5.28941C2.60788 5.31352 2.63235 5.33703 2.65618 5.36023C2.48992 5.52796 2.3208 5.69649 2.15096 5.86575C1.8643 6.15142 1.57557 6.43914 1.29504 6.72853L1.29451 6.72909C0.651105 7.39841 0.659812 8.53198 1.29447 9.19254L1.29446 9.19256L1.29645 9.19457C1.7349 9.63714 2.17705 10.0778 2.61872 10.5179L2.61916 10.5183C3.06084 10.9585 3.50203 11.3981 3.93938 11.8396C4.1567 12.0645 4.41573 12.3197 4.75982 12.4495C5.40809 12.7097 6.19605 12.5594 6.69487 12.0602C6.85648 11.8984 7.01773 11.7362 7.17906 11.5739C7.45865 11.2927 7.73849 11.0111 8.02091 10.7314C8.92614 11.6405 9.83461 12.5479 10.7429 13.455L10.744 13.4561C11.6935 14.4045 12.6427 15.3526 13.5882 16.3025C14.0718 16.8808 14.9332 17.1487 15.6456 16.8068C16.2346 16.5444 16.6581 15.9238 16.6442 15.2658C16.6676 14.784 16.4525 14.3295 16.1209 14.0055C15.1512 13.0351 14.1834 12.0646 13.2155 11.094L13.2137 11.0923L13.2133 11.0918C12.2879 10.1639 11.3625 9.23592 10.4353 8.30792C10.5926 8.14961 10.7517 7.99178 10.9112 7.83353C11.2183 7.529 11.5268 7.22296 11.8266 6.90923L11.8267 6.90927L11.8296 6.90606C12.4482 6.22761 12.414 5.09477 11.7709 4.45113L11.7708 4.45108C10.8116 3.49109 9.85204 2.53079 8.89244 1.57801ZM7.37963 2.14846L7.37967 2.14859L7.38636 2.146C7.68202 2.03127 8.03066 2.12204 8.23768 2.35968L8.23735 2.35997L8.2463 2.36892C8.5561 2.67896 8.86655 2.98882 9.17717 3.29885C9.79886 3.91934 10.4213 4.54054 11.0406 5.1654L11.0411 5.16593C11.3303 5.45536 11.3244 5.98645 11.0288 6.27027L11.0287 6.27024L11.026 6.27296C10.4921 6.80726 9.95815 7.34082 9.42439 7.87416C8.35807 8.93963 7.29263 10.0042 6.23071 11.072C6.19557 11.1057 6.16242 11.1385 6.13055 11.17C5.98045 11.3183 5.8589 11.4384 5.69273 11.4989L5.6927 11.4988L5.68787 11.5007C5.39869 11.6153 5.04751 11.5309 4.83272 11.3037L4.83277 11.3036L4.82914 11.3C4.36444 10.835 3.89787 10.3699 3.43146 9.90503L3.43144 9.90501C2.96499 9.44008 2.4987 8.97531 2.03432 8.51057L2.03435 8.51054L2.03157 8.50787C1.7378 8.22588 1.73569 7.69484 2.02676 7.40353L2.02707 7.40323C2.83135 6.59454 3.63754 5.78772 4.44391 4.98072L4.44415 4.98048C5.25039 4.17361 6.0568 3.36656 6.86136 2.5576L6.73033 2.42729L6.86105 2.55791C6.88067 2.53828 6.89975 2.51901 6.91841 2.50016C7.07897 2.33801 7.20829 2.2074 7.37963 2.14846ZM14.417 15.702L14.417 15.702L14.4149 15.6999C13.1258 14.4048 11.8333 13.1129 10.5398 11.8201C9.9363 11.2169 9.33256 10.6135 8.72889 10.0094C9.05653 9.68148 9.38407 9.35312 9.70752 9.02465L12.465 11.7843L15.3542 14.6758L15.3542 14.6758L15.3574 14.6789C15.4996 14.8144 15.5945 14.9653 15.6108 15.1235L15.6106 15.1236L15.6119 15.1324C15.6648 15.4788 15.3998 15.8464 15.0537 15.9051L15.0537 15.9049L15.0465 15.9065C14.8266 15.9528 14.5803 15.8715 14.417 15.702ZM3.20593 4.48693C3.11915 4.40272 3.04234 4.32217 2.97907 4.23319C2.96425 4.19549 2.969 4.16005 3.00324 4.10567C3.04357 4.0416 3.10633 3.98212 3.1805 3.91182C3.18655 3.90609 3.19268 3.90028 3.19888 3.89439C3.30305 3.80326 3.40054 3.70074 3.49113 3.60549C3.50837 3.58737 3.52535 3.5695 3.54209 3.55203C3.64226 3.44746 3.73619 3.35377 3.83623 3.27704C3.92087 3.25993 3.99522 3.29314 4.09808 3.39089C4.14628 3.4367 4.19176 3.48824 4.24285 3.54614C4.25353 3.55824 4.26445 3.57062 4.27569 3.58328C4.29444 3.60439 4.31418 3.62639 4.33484 3.64853L3.84634 4.13741L3.35478 4.62936C3.32939 4.6048 3.3041 4.58074 3.27946 4.55732C3.25404 4.53314 3.22932 4.50963 3.20593 4.48693Z" fill="#25EDBC" stroke="#25EDBC" stroke-width="0.369578"/>
</svg>
