<svg width="23" height="23" viewBox="0 0 23 23" fill="#ffffff" xmlns="http://www.w3.org/2000/svg">
<path d="M11.7604 1.41321L11.76 1.41278C10.866 0.529571 9.31057 0.529075 8.41585 1.41129C7.82701 1.97427 7.26056 2.55992 6.69494 3.14472C6.65809 3.18281 6.62125 3.22091 6.5844 3.25899C6.56268 3.23651 6.54073 3.21365 6.51841 3.19042C6.48981 3.16064 6.4606 3.13023 6.43049 3.09917C6.31606 2.98109 6.19216 2.85737 6.0576 2.74644C5.7888 2.52482 5.45932 2.33916 5.03886 2.34281C4.58666 2.32043 4.2398 2.51726 3.95947 2.75315C3.81977 2.8707 3.69119 3.0025 3.57279 3.12611C3.55728 3.14231 3.54196 3.15834 3.52682 3.17419C3.42341 3.28241 3.32793 3.38234 3.22987 3.47213L3.22947 3.4725C2.86254 3.80994 2.35713 4.31313 2.40272 5.00531C2.40539 5.42529 2.59374 5.74897 2.81517 6.01239C2.9258 6.14399 3.04865 6.26521 3.1646 6.37708C3.18471 6.39649 3.20454 6.41554 3.2241 6.43434C3.25805 6.46696 3.29115 6.49877 3.3234 6.53016C3.09846 6.75709 2.86966 6.9851 2.63987 7.21409C2.25206 7.60056 1.86145 7.98982 1.48193 8.38132L1.4812 8.38208C0.610745 9.2876 0.622525 10.8212 1.48116 11.7149L1.48113 11.7149L1.48383 11.7176C2.07717 12.3165 2.67553 12.9128 3.27323 13.5084L3.27332 13.5085C3.87087 14.104 4.46776 14.6988 5.05945 15.296C5.35345 15.6004 5.70388 15.9456 6.16937 16.1212C7.04642 16.4733 8.11248 16.2699 8.78733 15.5945C9.00598 15.3757 9.22412 15.1562 9.44238 14.9366C9.82064 14.5561 10.1992 14.1753 10.5813 13.7968C11.8059 15.0266 13.0349 16.2541 14.2636 17.4813L14.2639 17.4816C15.5489 18.7651 16.8336 20.0482 18.1132 21.3339C18.7676 22.1163 19.9329 22.4788 20.8968 22.0162C21.6936 21.6613 22.2665 20.8216 22.2478 19.9314C22.2794 19.2796 21.9884 18.6646 21.5398 18.2263C20.2277 16.9132 18.9182 15.6001 17.6086 14.2869L17.6067 14.285C16.3545 13.0294 15.1023 11.7738 13.8478 10.5181C14.0606 10.3039 14.2758 10.0904 14.4917 9.87627C14.907 9.46427 15.3244 9.05023 15.73 8.6258L15.7301 8.62584L15.7341 8.6215C16.571 7.70364 16.5247 6.17102 15.6546 5.30024C14.3569 4.00145 13.0587 2.70225 11.7604 1.41321ZM9.71373 2.18497L9.71379 2.18515L9.72285 2.18164C10.1228 2.02642 10.5945 2.14922 10.8746 2.47073L10.8802 2.47718L10.8862 2.48323C11.3054 2.90272 11.7254 3.32194 12.1457 3.74141C12.9868 4.58084 13.8288 5.42124 14.6666 6.26657L14.6673 6.26729C15.0586 6.65886 15.0506 7.37738 14.6506 7.76135L14.6506 7.76131L14.6469 7.76499C13.9247 8.48781 13.2022 9.20965 12.4801 9.93118C11.0375 11.3727 9.59605 12.813 8.15937 14.2576C8.11183 14.3032 8.06697 14.3476 8.02386 14.3902C7.8208 14.5908 7.65635 14.7533 7.43154 14.8351L7.4315 14.835L7.42496 14.8376C7.03374 14.9926 6.55862 14.8785 6.26803 14.571L6.2681 14.571L6.26319 14.5661C5.63486 13.9372 5.00401 13.3085 4.37336 12.6799L4.37228 12.6788C3.74121 12.0498 3.11036 11.421 2.48209 10.7922L2.48213 10.7922L2.47837 10.7886C2.08093 10.4071 2.07807 9.68864 2.47187 9.29454L2.47228 9.29412C3.56038 8.20005 4.65108 7.10851 5.74201 6.01672L5.74228 6.01645C6.83306 4.92482 7.92407 3.83295 9.01257 2.7385L8.83531 2.5622L9.01215 2.73891C9.03869 2.71235 9.06451 2.68628 9.08975 2.66079C9.30698 2.44141 9.48194 2.26472 9.71373 2.18497ZM19.2345 20.5215L19.2346 20.5215L19.2317 20.5186C17.4877 18.7665 15.7391 17.0187 13.9891 15.2697C13.1726 14.4536 12.3558 13.6373 11.5391 12.8201C11.9824 12.3764 12.4255 11.9321 12.8631 11.4877L20.5025 19.1331L20.5025 19.1331L20.5069 19.1373C20.6992 19.3206 20.8275 19.5248 20.8497 19.7389L20.8494 19.7389L20.8512 19.7509C20.9226 20.2196 20.5641 20.7168 20.0959 20.7962L20.0959 20.7961L20.0862 20.7981C19.7887 20.8608 19.4554 20.7508 19.2345 20.5215ZM4.06716 5.34868C3.94976 5.23475 3.84584 5.12578 3.76024 5.0054C3.74019 4.95439 3.74662 4.90644 3.79293 4.83287C3.84749 4.7462 3.93241 4.66571 4.03275 4.57062C4.04094 4.56286 4.04924 4.555 4.05762 4.54703C4.19854 4.42374 4.33044 4.28505 4.45299 4.15619C4.47632 4.13166 4.4993 4.10749 4.52195 4.08385C4.65747 3.94238 4.78454 3.81562 4.91989 3.71182C5.03439 3.68867 5.13499 3.7336 5.27414 3.86585C5.33936 3.92783 5.40088 3.99755 5.47001 4.0759C5.48445 4.09226 5.49923 4.109 5.51443 4.12613C5.5398 4.15469 5.5665 4.18446 5.59446 4.2144L4.26854 5.54136C4.23419 5.50814 4.19997 5.4756 4.16664 5.4439C4.13224 5.41119 4.0988 5.37938 4.06716 5.34868Z" fill="#ffffff" stroke="#ffffff" stroke-width="0.5"/>
</svg>
