<svg width="30" height="30" viewBox="0 0 30 30" fill="none" xmlns="http://www.w3.org/2000/svg">
<path d="M6.25 26.25L23.75 26.25C24.4404 26.25 25 25.6904 25 25L25 12.5C25 11.8096 24.4404 11.25 23.75 11.25L6.25 11.25C5.55964 11.25 5 11.8096 5 12.5L5 25C5 25.6904 5.55964 26.25 6.25 26.25Z" stroke="white" stroke-width="2" stroke-linecap="round" stroke-linejoin="round"/>
<path d="M18.4615 11.25V10.25V11.25ZM11.5385 11.25L11.5385 12.25H11.5385L11.5385 11.25ZM11.25 10.9615H10.25H11.25ZM11.25 7.5H12.25H11.25ZM18.75 7.5H17.75H18.75ZM18.75 10.9615H19.75V10.9615L18.75 10.9615ZM15 3.75V4.75V3.75ZM18.4615 10.25L11.5385 10.25L11.5385 12.25L18.4615 12.25L18.4615 10.25ZM12.25 10.9615L12.25 7.5H10.25L10.25 10.9615H12.25ZM17.75 7.5L17.75 10.9615L19.75 10.9615L19.75 7.5L17.75 7.5ZM15 4.75C16.5188 4.75 17.75 5.98122 17.75 7.5L19.75 7.5C19.75 4.87665 17.6234 2.75 15 2.75L15 4.75ZM12.25 7.5C12.25 5.98122 13.4812 4.75 15 4.75L15 2.75C12.3766 2.75 10.25 4.87665 10.25 7.5H12.25ZM11.5385 10.25C11.9314 10.25 12.25 10.5686 12.25 10.9615H10.25C10.25 11.6731 10.8269 12.25 11.5385 12.25L11.5385 10.25ZM18.4615 12.25C19.1731 12.25 19.75 11.6731 19.75 10.9615H17.75C17.75 10.5686 18.0686 10.25 18.4615 10.25V12.25Z" fill="white"/>
</svg>
