<svg width="55" height="64" viewBox="0 0 55 64" fill="none" xmlns="http://www.w3.org/2000/svg">
<g clip-path="url(#clip0_1323_233)">
<path d="M9.7645 24.4652C10.5356 24.4208 11.3141 24.4282 12.0877 24.4627C12.8025 24.4923 13.4145 25.0226 13.6593 25.6811C14.7707 28.3225 15.8258 30.9861 16.9641 33.6152C16.991 31.1809 16.9518 28.7467 16.9788 26.3124C16.9298 25.3383 17.7695 24.4553 18.7364 24.4603C19.7475 24.3789 20.6826 25.2741 20.6336 26.2976C20.6606 30.1673 20.6336 34.0394 20.6483 37.9114C20.7071 38.6809 20.3423 39.4973 19.6275 39.8327C18.805 40.1928 17.8723 39.9856 17.0033 40.0325C16.215 40.0867 15.4243 39.6206 15.1403 38.8684C14.0191 36.1776 12.9077 33.482 11.7988 30.7888C11.7866 33.2403 11.8086 35.6942 11.789 38.1457C11.8478 39.1767 10.92 40.0941 9.89914 40.0177C8.91749 40.03 8.07538 39.1323 8.12923 38.1482C8.11699 34.2071 8.11944 30.2659 8.12679 26.3248C8.09251 25.4024 8.84405 24.5293 9.7645 24.4652Z" fill="#F8FAFB"/>
<path d="M23.8601 26.3125C23.8185 25.2643 24.7854 24.3666 25.8136 24.4455C28.4134 24.4578 31.0156 24.4159 33.6154 24.4677C34.9079 24.5072 35.6668 26.1251 35.0205 27.2102C34.6778 27.8934 33.892 28.1918 33.1649 28.1474C31.2873 28.145 29.4073 28.145 27.5296 28.145C27.5272 29.2203 27.5247 30.298 27.5296 31.3783C28.9152 31.3955 30.3008 31.3289 31.6839 31.4054C32.6827 31.4621 33.4244 32.4955 33.2678 33.4697C33.187 34.3822 32.3424 35.1172 31.4318 35.0703C30.1319 35.0925 28.832 35.0679 27.5296 35.0728C27.4905 36.264 27.6055 37.4602 27.466 38.644C27.2261 39.8377 25.6961 40.3975 24.7095 39.7464C24.0706 39.3888 23.8136 38.6193 23.8527 37.9189C23.8601 34.0517 23.8454 30.1821 23.8601 26.3125Z" fill="#F8FAFB"/>
<path d="M36.7782 25.3258C37.121 24.6993 37.848 24.4132 38.5335 24.4453C41.0647 24.4478 43.5984 24.4379 46.1321 24.4502C46.8665 24.4206 47.6131 24.8399 47.8848 25.5477C48.3426 26.5515 47.7282 27.8981 46.6217 28.0929C45.7893 28.199 44.9472 28.125 44.11 28.1472C44.1076 31.4866 44.1247 34.8259 44.1027 38.1628C44.1541 39.1814 43.241 40.0841 42.2324 40.0175C41.2434 40.0397 40.389 39.137 40.4478 38.1431C40.4307 34.8111 40.4453 31.4767 40.4404 28.1447C39.5641 28.1176 38.6754 28.2261 37.8088 28.0609C36.6754 27.7773 36.1662 26.2975 36.7782 25.3258Z" fill="#F8FAFB"/>
<g filter="url(#filter0_i_1323_233)">
<path d="M26.876 0.803529C27.4561 0.52977 28.1244 0.704877 28.6459 1.03043C36.8712 5.81505 45.0965 10.6071 53.3267 15.3843C54.1296 15.769 54.9766 16.43 54.9032 17.4288C54.913 27.3014 54.913 37.174 54.9032 47.0441C54.9448 47.8161 54.4429 48.4968 53.7771 48.8298C45.3413 53.7253 36.9152 58.6456 28.4745 63.5387C27.7132 64.0394 26.7805 63.7484 26.0951 63.265C17.7743 58.4064 9.43882 53.5749 1.11561 48.7262C0.420372 48.3661 0.0752036 47.5695 0.1413 46.8049C0.15354 37.0137 0.136404 27.2225 0.151092 17.4313C0.107028 16.6643 0.603973 15.9787 1.27228 15.6556C9.81582 10.7205 18.3104 5.69666 26.876 0.803529ZM9.76441 24.4652C8.84396 24.5293 8.09242 25.4024 8.12669 26.3248C8.11935 30.2659 8.1169 34.2071 8.12914 38.1482C8.07528 39.1323 8.9174 40.03 9.89905 40.0177C10.9199 40.0941 11.8477 39.1767 11.7889 38.1457C11.8085 35.6942 11.7865 33.2403 11.7987 30.7888C12.9076 33.482 14.019 36.1776 15.1402 38.8684C15.4242 39.6206 16.2149 40.0867 17.0032 40.0325C17.8722 39.9856 18.8049 40.1928 19.6274 39.8327C20.3422 39.4973 20.707 38.6809 20.6482 37.9114C20.6336 34.0394 20.6605 30.1673 20.6336 26.2977C20.6825 25.2741 19.7474 24.3789 18.7363 24.4603C17.7694 24.4553 16.9297 25.3383 16.9787 26.3125C16.9517 28.7467 16.9909 31.1809 16.964 33.6152C15.8257 30.9861 14.7706 28.3225 13.6592 25.6811C13.4144 25.0226 12.8024 24.4923 12.0876 24.4627C11.314 24.4282 10.5355 24.4208 9.76441 24.4652ZM23.86 26.3125C23.8453 30.1821 23.86 34.0517 23.8527 37.9188C23.8135 38.6193 24.0705 39.3888 24.7095 39.7464C25.696 40.3975 27.226 39.8376 27.4659 38.6439C27.6055 37.4601 27.4904 36.264 27.5296 35.0727C28.8319 35.0678 30.1318 35.0925 31.4317 35.0703C32.3424 35.1171 33.1869 34.3822 33.2677 33.4696C33.4244 32.4955 32.6826 31.4621 31.6838 31.4054C30.3007 31.3289 28.9152 31.3955 27.5296 31.3782C27.5247 30.298 27.5271 29.2202 27.5296 28.1449C29.4072 28.1449 31.2873 28.1449 33.1649 28.1474C33.8919 28.1918 34.6778 27.8933 35.0205 27.2102C35.6667 26.125 34.9079 24.5071 33.6153 24.4677C31.0155 24.4159 28.4133 24.4578 25.8135 24.4455C24.7854 24.3665 23.8184 25.2643 23.86 26.3125ZM36.7781 25.3259C36.1661 26.2977 36.6753 27.7774 37.8088 28.0611C38.6753 28.2263 39.564 28.1178 40.4404 28.1449C40.4453 31.4769 40.4306 34.8113 40.4477 38.1433C40.3889 39.1372 41.2433 40.0399 42.2323 40.0177C43.2409 40.0843 44.154 39.1816 44.1026 38.163C44.1246 34.8261 44.1075 31.4867 44.1099 28.1474C44.9471 28.1252 45.7892 28.1992 46.6216 28.0931C47.7281 27.8983 48.3425 26.5517 47.8847 25.5479C47.613 24.8401 46.8664 24.4208 46.132 24.4504C43.5983 24.4381 41.0646 24.4479 38.5334 24.4455C37.8479 24.4134 37.1209 24.6995 36.7781 25.3259Z" fill="url(#paint0_linear_1323_233)"/>
</g>
</g>
<defs>
<filter id="filter0_i_1323_233" x="0.133301" y="0.668213" width="54.7772" height="64.06" filterUnits="userSpaceOnUse" color-interpolation-filters="sRGB">
<feFlood flood-opacity="0" result="BackgroundImageFix"/>
<feBlend mode="normal" in="SourceGraphic" in2="BackgroundImageFix" result="shape"/>
<feColorMatrix in="SourceAlpha" type="matrix" values="0 0 0 0 0 0 0 0 0 0 0 0 0 0 0 0 0 0 127 0" result="hardAlpha"/>
<feOffset dy="0.928416"/>
<feGaussianBlur stdDeviation="1.85683"/>
<feComposite in2="hardAlpha" operator="arithmetic" k2="-1" k3="1"/>
<feColorMatrix type="matrix" values="0 0 0 0 0.860667 0 0 0 0 0.683333 0 0 0 0 1 0 0 0 0.65 0"/>
<feBlend mode="normal" in2="shape" result="effect1_innerShadow_1323_233"/>
</filter>
<linearGradient id="paint0_linear_1323_233" x1="27.5219" y1="63.7997" x2="22.986" y2="-16.8806" gradientUnits="userSpaceOnUse">
<stop stop-color="#3E0F79"/>
<stop offset="1" stop-color="#723FD8" stop-opacity="0.73"/>
</linearGradient>
<clipPath id="clip0_1323_233">
<rect width="54.7766" height="63.1323" fill="white" transform="translate(0.134033 0.667725)"/>
</clipPath>
</defs>
</svg>
