<svg width="59" height="68" viewBox="0 0 59 68" fill="none" xmlns="http://www.w3.org/2000/svg">
<g clip-path="url(#clip0_1274_245)">
<path d="M10.373 25.6321C11.2036 25.5843 12.0421 25.5923 12.8753 25.6295C13.6452 25.6613 14.3044 26.2325 14.5681 26.9417C15.7652 29.7868 16.9016 32.6558 18.1277 35.4876C18.1567 32.8656 18.1145 30.2437 18.1435 27.6218C18.0908 26.5725 18.9952 25.6215 20.0367 25.6268C21.1257 25.5391 22.1329 26.5034 22.0802 27.6059C22.1092 31.7738 22.0802 35.9445 22.096 40.1151C22.1593 40.9439 21.7664 41.8232 20.9965 42.1845C20.1105 42.5723 19.1059 42.3492 18.1699 42.3997C17.3208 42.4581 16.4692 41.956 16.1633 41.1458C14.9557 38.2476 13.7586 35.3441 12.5641 32.4433C12.551 35.0838 12.5747 37.727 12.5536 40.3675C12.6169 41.4779 11.6175 42.4661 10.518 42.3837C9.46068 42.397 8.55364 41.4301 8.61165 40.3701C8.59846 36.1251 8.6011 31.8801 8.60901 27.6351C8.57209 26.6416 9.38158 25.7012 10.373 25.6321Z" fill="#F8FAFB"/>
<path d="M25.5554 27.6219C25.5106 26.4929 26.5521 25.5259 27.6595 25.6109C30.4598 25.6242 33.2626 25.579 36.0629 25.6348C37.4551 25.6773 38.2725 27.42 37.5764 28.5888C37.2072 29.3247 36.3608 29.6461 35.5777 29.5983C33.5553 29.5956 31.5303 29.5956 29.5079 29.5956C29.5053 30.7538 29.5026 31.9147 29.5079 33.0782C31.0003 33.0968 32.4927 33.0251 33.9825 33.1074C35.0583 33.1685 35.8572 34.2816 35.6885 35.3309C35.6014 36.3138 34.6918 37.1054 33.7109 37.0549C32.3108 37.0789 30.9107 37.0523 29.5079 37.0576C29.4657 38.3407 29.5896 39.629 29.4393 40.9041C29.1809 42.1899 27.533 42.7929 26.4704 42.0916C25.7822 41.7064 25.5053 40.8776 25.5475 40.1231C25.5554 35.9578 25.5396 31.7898 25.5554 27.6219Z" fill="#F8FAFB"/>
<path d="M39.4696 26.5591C39.8387 25.8844 40.6218 25.5762 41.3601 25.6108C44.0865 25.6134 46.8156 25.6028 49.5446 25.6161C50.3356 25.5842 51.1398 26.0358 51.4325 26.7982C51.9256 27.8794 51.2638 29.3298 50.0719 29.5397C49.1754 29.6539 48.2684 29.5742 47.3666 29.5981C47.364 33.1949 47.3825 36.7918 47.3587 40.386C47.4141 41.4831 46.4306 42.4554 45.3442 42.3836C44.279 42.4075 43.3588 41.4353 43.422 40.3647C43.4036 36.7759 43.4194 33.1843 43.4141 29.5954C42.4702 29.5662 41.513 29.6831 40.5796 29.5051C39.3588 29.1996 38.8104 27.6058 39.4696 26.5591Z" fill="#F8FAFB"/>
<g filter="url(#filter0_i_1274_245)">
<path d="M28.8038 0.146238C29.4287 -0.148629 30.1486 0.0399798 30.7102 0.390632C39.5697 5.54416 48.4292 10.7057 57.2939 15.8512C58.1588 16.2656 59.0711 16.9776 58.992 18.0534C59.0026 28.6872 59.0026 39.321 58.992 49.9522C59.0368 50.7836 58.4963 51.5168 57.7791 51.8754C48.6928 57.1485 39.6171 62.4481 30.5256 67.7185C29.7056 68.2578 28.701 67.9443 27.9627 67.4237C19.0004 62.1905 10.0222 56.9865 1.05725 51.7639C0.308412 51.376 -0.0633701 50.518 0.00782228 49.6945C0.021006 39.1483 0.00254877 28.6022 0.0183693 18.0561C-0.0290923 17.2299 0.506169 16.4914 1.226 16.1434C10.4283 10.8279 19.5778 5.41665 28.8038 0.146238ZM10.3729 25.6323C9.38148 25.7014 8.572 26.6417 8.60891 27.6353C8.601 31.8803 8.59837 36.1253 8.61155 40.3703C8.55354 41.4302 9.46058 42.3972 10.5179 42.3839C11.6174 42.4663 12.6168 41.4781 12.5535 40.3677C12.5746 37.7271 12.5509 35.084 12.564 32.4434C13.7585 35.3443 14.9556 38.2478 16.1632 41.146C16.4691 41.9562 17.3207 42.4583 18.1698 42.3998C19.1058 42.3494 20.1104 42.5725 20.9964 42.1847C21.7663 41.8234 22.1592 40.9441 22.0959 40.1153C22.0801 35.9447 22.1091 31.774 22.0801 27.606C22.1328 26.5036 21.1256 25.5393 20.0366 25.627C18.9951 25.6217 18.0907 26.5727 18.1434 27.622C18.1144 30.2439 18.1566 32.8658 18.1276 35.4877C16.9015 32.656 15.7651 29.787 14.568 26.9419C14.3043 26.2327 13.6451 25.6615 12.8752 25.6296C12.042 25.5924 11.2035 25.5845 10.3729 25.6323ZM25.5553 27.622C25.5395 31.79 25.5553 35.9579 25.5474 40.1233C25.5052 40.8777 25.7821 41.7065 26.4703 42.0917C27.5329 42.793 29.1809 42.19 29.4393 40.9043C29.5896 39.6292 29.4656 38.3408 29.5078 37.0577C30.9106 37.0524 32.3107 37.079 33.7108 37.0551C34.6917 37.1055 35.6014 36.3139 35.6884 35.331C35.8571 34.2817 35.0582 33.1687 33.9824 33.1076C32.4926 33.0252 31.0002 33.0969 29.5078 33.0783C29.5026 31.9148 29.5052 30.7539 29.5078 29.5957C31.5302 29.5957 33.5552 29.5957 35.5776 29.5984C36.3607 29.6462 37.2071 29.3248 37.5763 28.5889C38.2724 27.4201 37.455 25.6775 36.0628 25.6349C33.2626 25.5792 30.4597 25.6243 27.6595 25.611C26.552 25.526 25.5105 26.493 25.5553 27.622ZM39.4695 26.5594C38.8103 27.606 39.3587 29.1999 40.5796 29.5054C41.513 29.6834 42.4701 29.5665 43.4141 29.5957C43.4193 33.1846 43.4035 36.7761 43.422 40.365C43.3587 41.4356 44.2789 42.4078 45.3442 42.3839C46.4305 42.4556 47.414 41.4834 47.3586 40.3863C47.3824 36.7921 47.3639 33.1952 47.3666 29.5984C48.2683 29.5745 49.1754 29.6542 50.0719 29.5399C51.2637 29.3301 51.9255 27.8797 51.4324 26.7985C51.1398 26.0361 50.3355 25.5845 49.5445 25.6164C46.8155 25.6031 44.0864 25.6137 41.36 25.611C40.6217 25.5765 39.8386 25.8847 39.4695 26.5594Z" fill="url(#paint0_linear_1274_245)"/>
</g>
</g>
<defs>
<filter id="filter0_i_1274_245" x="-0.000793457" y="0.000488281" width="59.0007" height="68.999" filterUnits="userSpaceOnUse" color-interpolation-filters="sRGB">
<feFlood flood-opacity="0" result="BackgroundImageFix"/>
<feBlend mode="normal" in="SourceGraphic" in2="BackgroundImageFix" result="shape"/>
<feColorMatrix in="SourceAlpha" type="matrix" values="0 0 0 0 0 0 0 0 0 0 0 0 0 0 0 0 0 0 127 0" result="hardAlpha"/>
<feOffset dy="1"/>
<feGaussianBlur stdDeviation="2"/>
<feComposite in2="hardAlpha" operator="arithmetic" k2="-1" k3="1"/>
<feColorMatrix type="matrix" values="0 0 0 0 0.860667 0 0 0 0 0.683333 0 0 0 0 1 0 0 0 0.65 0"/>
<feBlend mode="normal" in2="shape" result="effect1_innerShadow_1274_245"/>
</filter>
<linearGradient id="paint0_linear_1274_245" x1="29.4996" y1="67.9996" x2="24.614" y2="-18.9014" gradientUnits="userSpaceOnUse">
<stop stop-color="#3E0F79"/>
<stop offset="1" stop-color="#723FD8" stop-opacity="0.73"/>
</linearGradient>
<clipPath id="clip0_1274_245">
<rect width="59" height="68" fill="white"/>
</clipPath>
</defs>
</svg>
