<svg width="55" height="57" viewBox="0 0 55 57" fill="none" xmlns="http://www.w3.org/2000/svg">
<g clip-path="url(#clip0_1323_223)">
<g filter="url(#filter0_i_1323_223)">
<path d="M27.5273 56.0294C42.6563 56.0294 54.9207 43.5595 54.9207 28.1769C54.9207 12.7944 42.6563 0.324463 27.5273 0.324463C12.3984 0.324463 0.133911 12.7944 0.133911 28.1769C0.133911 43.5595 12.3984 56.0294 27.5273 56.0294Z" fill="url(#paint0_linear_1323_223)"/>
</g>
<path d="M33.9038 25.9387L7.9483 15.7585V17.6084L7.9483 37.6304L12.3119 35.9172L14.4478 35.0788H13.7877C12.972 35.0788 12.3119 34.4056 12.3119 33.5763V22.2241L32.3643 30.0952L32.4023 30.1101C33.8535 30.6933 34.8247 32.1422 34.8247 33.7358C34.8247 35.8819 33.1083 37.6304 30.9992 37.6304H20.53V29.8287C20.53 28.8513 21.3233 28.0665 22.2833 28.0961L23.3204 28.128L20.53 27.0333L16.1664 25.3213V40.0943C16.1664 40.7424 15.7748 41.3245 15.1796 41.558L13.8649 42.074H16.1653H30.9981C35.5139 42.074 39.1871 38.3343 39.1871 33.7369C39.1871 30.2923 37.0646 27.1598 33.9038 25.9387Z" fill="white"/>
<path d="M38.8549 19.1144C38.6535 16.0958 36.4661 13.2207 32.7515 13.1672C32.6989 13.166 30.7554 13.166 30.7017 13.166H16.1654H13.7352L15.1461 13.7196C15.7614 13.9611 16.1665 14.5626 16.1665 15.2335V17.6438L20.5301 19.365V17.6085H29.9107H30.9993C31.0172 17.6085 31.0351 17.6085 31.053 17.6085C33.4385 17.6438 34.0192 21.0133 31.7937 21.887L29.4094 22.8233L35.4245 25.1972C37.9441 23.9499 39.0138 21.4883 38.8549 19.1144Z" fill="white"/>
<path d="M40.0152 18.6598C40.0286 18.784 40.0409 18.9082 40.0488 19.0323C40.1707 20.8515 39.6874 22.5544 38.7218 23.9282L43.0418 22.232V33.5877C43.0418 34.4113 42.3861 35.0788 41.5772 35.0788H40.9562L43.0406 35.8967L47.4042 37.6292V20.52V17.6084V15.7585L40.0152 18.6598Z" fill="white"/>
</g>
<defs>
<filter id="filter0_i_1323_223" x="0.133911" y="0.324463" width="54.7868" height="56.6335" filterUnits="userSpaceOnUse" color-interpolation-filters="sRGB">
<feFlood flood-opacity="0" result="BackgroundImageFix"/>
<feBlend mode="normal" in="SourceGraphic" in2="BackgroundImageFix" result="shape"/>
<feColorMatrix in="SourceAlpha" type="matrix" values="0 0 0 0 0 0 0 0 0 0 0 0 0 0 0 0 0 0 127 0" result="hardAlpha"/>
<feOffset dy="0.928416"/>
<feGaussianBlur stdDeviation="1.85683"/>
<feComposite in2="hardAlpha" operator="arithmetic" k2="-1" k3="1"/>
<feColorMatrix type="matrix" values="0 0 0 0 1 0 0 0 0 0.906851 0 0 0 0 0.6125 0 0 0 1 0"/>
<feBlend mode="normal" in2="shape" result="effect1_innerShadow_1323_223"/>
</filter>
<linearGradient id="paint0_linear_1323_223" x1="27.5273" y1="56.0294" x2="23.994" y2="-15.2098" gradientUnits="userSpaceOnUse">
<stop stop-color="#815C19"/>
<stop offset="1" stop-color="#D39B33"/>
</linearGradient>
<clipPath id="clip0_1323_223">
<rect width="54.7868" height="55.705" fill="white" transform="translate(0.134033 0.324463)"/>
</clipPath>
</defs>
</svg>
