<svg width="26" height="26" viewBox="0 0 26 26" fill="none" xmlns="http://www.w3.org/2000/svg">
<path fill-rule="evenodd" clip-rule="evenodd" d="M20.0417 16.5208C21.9862 16.5208 23.5625 18.0972 23.5625 20.0416C23.5625 21.9861 21.9862 23.5625 20.0417 23.5625C18.0972 23.5625 16.5208 21.9861 16.5208 20.0416C16.5208 18.0972 18.0972 16.5208 20.0417 16.5208ZM21.9375 20.0416C21.9375 18.9946 21.0887 18.1458 20.0417 18.1458C18.9946 18.1458 18.1458 18.9946 18.1458 20.0416C18.1458 21.0887 18.9946 21.9375 20.0417 21.9375C21.0887 21.9375 21.9375 21.0887 21.9375 20.0416Z" fill="white"/>
<path fill-rule="evenodd" clip-rule="evenodd" d="M5.95842 2.4375C7.9029 2.4375 9.47925 4.01383 9.47925 5.95833C9.47925 7.90282 7.9029 9.47917 5.95841 9.47917C4.01392 9.47917 2.43758 7.90282 2.43758 5.95833C2.43758 4.01383 4.01393 2.4375 5.95842 2.4375ZM7.85425 5.95833C7.85425 4.9113 7.00544 4.0625 5.95841 4.0625C4.91139 4.0625 4.06258 4.9113 4.06258 5.95833C4.06258 7.00536 4.91139 7.85417 5.95841 7.85417C7.00544 7.85417 7.85425 7.00536 7.85425 5.95833Z" fill="white"/>
<path fill-rule="evenodd" clip-rule="evenodd" d="M19.2269 5.14581C21.6214 5.14581 23.5625 7.08691 23.5625 9.48142C23.5625 11.8759 21.6214 13.817 19.2269 13.817L6.76856 13.817C5.27407 13.817 4.0625 15.0285 4.0625 16.5231C4.0625 18.0176 5.27406 19.2291 6.76856 19.2291L17.3333 19.2291C17.7821 19.2291 18.1458 19.5929 18.1458 20.0416C18.1458 20.4904 17.7821 20.8541 17.3333 20.8541L6.76856 20.8541C4.3766 20.8541 2.4375 18.915 2.4375 16.5231C2.4375 14.1311 4.37659 12.192 6.76856 12.192L19.2269 12.192C20.7239 12.192 21.9375 10.9784 21.9375 9.48142C21.9375 7.98438 20.7239 6.77081 19.2269 6.77081L8.66667 6.77081C8.21794 6.77081 7.85417 6.40704 7.85417 5.95831C7.85417 5.50958 8.21794 5.14581 8.66667 5.14581L19.2269 5.14581Z" fill="white"/>
</svg>
