<svg width="34" height="34" viewBox="0 0 34 34" fill="none" xmlns="http://www.w3.org/2000/svg">
<g clip-path="url(#clip0_806_563)">
<path fill-rule="evenodd" clip-rule="evenodd" d="M17.0004 0.166138C7.74957 0.166138 0.249268 7.66644 0.249268 16.9172C0.249268 26.168 7.74957 33.6683 17.0004 33.6683C26.2512 33.6683 33.7515 26.168 33.7515 16.9172C33.7515 7.66644 26.2512 0.166138 17.0004 0.166138ZM24.7645 11.5583C24.5132 14.2064 23.4216 20.6346 22.8674 23.6009C22.6329 24.8573 22.1695 25.2774 21.7228 25.3179C20.7498 25.4073 20.0114 24.6744 19.0691 24.0574C17.595 23.0914 16.7617 22.4898 15.3308 21.5461C13.6767 20.4559 14.7487 19.8571 15.691 18.8785C15.9381 18.6217 20.2236 14.7228 20.3073 14.3697C20.3171 14.325 20.3283 14.1603 20.2291 14.0737C20.13 13.9872 19.9863 14.0165 19.883 14.0402C19.735 14.0737 17.3801 15.6302 12.8168 18.7096C12.1481 19.1689 11.5423 19.3922 10.9993 19.381C10.4018 19.3685 9.25159 19.0432 8.39589 18.764C7.34755 18.4234 6.51278 18.242 6.58537 17.6641C6.62306 17.3625 7.03765 17.054 7.83054 16.7386C12.7135 14.6112 15.9702 13.2083 17.5992 12.5298C22.2518 10.5951 23.2178 10.2587 23.8488 10.2475C24.6389 10.2363 24.8287 10.8882 24.7645 11.5583Z" fill="white"/>
</g>
<defs>
<clipPath id="clip0_806_563">
<rect width="33.5022" height="33.5022" fill="white" transform="translate(0.249023 0.166138)"/>
</clipPath>
</defs>
</svg>
