<svg width="34" height="34" viewBox="0 0 34 34" fill="none" xmlns="http://www.w3.org/2000/svg">
<g clip-path="url(#clip0_806_561)">
<path d="M30.3217 9.91674C30.3412 10.2113 30.3412 10.5072 30.3412 10.8045C30.3412 19.8878 23.4258 30.3615 10.7843 30.3615V30.3559C7.05021 30.3615 3.39289 29.2922 0.249268 27.2751C0.792282 27.3407 1.33809 27.3728 1.88529 27.3742C4.98145 27.377 7.98828 26.3384 10.4214 24.426C7.48016 24.3701 4.90049 22.4521 4.00012 19.6519C5.03031 19.8501 6.09121 19.8097 7.10326 19.5347C3.89542 18.887 1.58936 16.0686 1.58936 12.7965C1.58936 12.7672 1.58936 12.7379 1.58936 12.71C2.54556 13.2432 3.61484 13.5378 4.70925 13.5699C1.68847 11.5528 0.755988 7.53529 2.58046 4.39446C6.07027 8.68832 11.2198 11.2987 16.7463 11.5765C16.1921 9.18946 16.9501 6.68796 18.7341 5.00867C21.5022 2.40527 25.8561 2.53927 28.4595 5.30739C29.9992 5.00448 31.4747 4.43913 32.8246 3.63926C32.3109 5.23062 31.2374 6.58187 29.8024 7.44176C31.1662 7.27844 32.4965 6.9141 33.7515 6.35852C32.8288 7.73909 31.6674 8.94378 30.3217 9.91674Z" fill="white"/>
</g>
<defs>
<clipPath id="clip0_806_561">
<rect width="33.5022" height="33.5022" fill="white" transform="translate(0.249023 0.00012207)"/>
</clipPath>
</defs>
</svg>
