<svg width="17" height="17" viewBox="0 0 17 17" fill="none" xmlns="http://www.w3.org/2000/svg">
<path d="M7 9.92676L12 4.92676M12 4.92676L12.6464 5.5732C12.8417 5.76847 13.1583 5.76847 13.3536 5.5732L15.6464 3.28031C15.8417 3.08505 15.8417 2.76847 15.6464 2.5732L14.3536 1.28031C14.1583 1.08505 13.8417 1.08505 13.6464 1.28031L11.3536 3.5732C11.1583 3.76847 11.1583 4.08505 11.3536 4.28031L12 4.92676ZM9.57929 13.8475L12.6464 10.7803C12.8417 10.585 12.8417 10.2685 12.6464 10.0732L6.85355 4.28031C6.65829 4.08505 6.34171 4.08505 6.14645 4.28031L3.07928 7.34747C1.76762 8.65914 1.1364 10.5037 1.36948 12.344L1.4385 12.889C1.61049 14.2469 2.67983 15.3163 4.03778 15.4883L4.58275 15.5573C6.42302 15.7904 8.26762 15.1591 9.57929 13.8475Z" stroke="#25EDBC" stroke-width="1.5" stroke-linecap="round"/>
</svg>
