<svg width="52" height="66" viewBox="0 0 52 66" fill="none" xmlns="http://www.w3.org/2000/svg">
<path d="M36.9639 66H30.5422V59.3609H22.006V66H15.5843V59.3609H0V52.5657L5.3253 49.0509V15.6994L0 11.8722V6.0142H15.5843V0H22.006V6.0142H30.5422V0H36.9639V6.0142H40.4096L40.5663 6.09231L49.7289 14.2935L49.6506 30.9302L48.6325 32.0237L51.9217 34.9136V54.3621L46.3614 59.3609H36.9639V66ZM31.4819 65.1408H36.1024V58.5018H45.9699L51.0602 54.0497V35.3822L47.3795 32.1799L48.7892 30.6959L48.8675 14.7621L40.0964 6.87337H36.1024V0.859172H31.4819V6.87337H21.1446V0.859172H16.5241V6.87337H0.861446V11.4036L6.26506 15.2308V49.5195L0.939759 53.0343V58.5018H16.5241V65.1408H21.1446V58.5018H31.4819V65.1408Z" fill="#25EDBC"/>
<path d="M41.8193 19.5266L36.8072 15.4651H13.3133V24.8379H29.3675L12.8434 37.0225V45.0675L17.6988 49.2071H41.4277V39.8343H25.1386L41.8193 27.4935V19.5266Z" fill="#25EDBC"/>
</svg>
