<svg width="96" height="88" viewBox="0 0 96 88" fill="none" xmlns="http://www.w3.org/2000/svg">
<g filter="url(#filter0_f_291_278)">
<path fill-rule="evenodd" clip-rule="evenodd" d="M52.4681 2.0603C28.7214 2.0603 9.46814 21.31 9.46814 45.0603C9.46814 64.0591 21.7876 80.177 38.873 85.8637C41.023 86.2615 41.8113 84.932 41.8113 83.7961C41.8113 82.7713 41.7719 79.385 41.754 75.791C29.7928 78.3925 27.2666 70.717 27.2666 70.717C25.3101 65.7469 22.4936 64.4246 22.4936 64.4246C18.5913 61.755 22.7874 61.8124 22.7874 61.8124C27.1053 62.117 29.3771 66.245 29.3771 66.245C33.2113 72.8168 39.4356 70.9176 41.8901 69.8175C42.2771 67.0369 43.3916 65.1413 44.6206 64.0663C35.0711 62.9805 25.0306 59.2933 25.0306 42.8171C25.0306 38.123 26.7111 34.2852 29.4631 31.2752C29.0152 30.1895 27.5425 25.8178 29.8788 19.8945C29.8788 19.8945 33.4908 18.7407 41.7074 24.302C45.1366 23.3489 48.8131 22.8723 52.4681 22.8544C56.1231 22.8723 59.8032 23.3489 63.2396 24.302C71.4455 18.7371 75.0539 19.8945 75.0539 19.8945C77.3938 25.8178 75.9211 30.1895 75.4767 31.2752C78.2323 34.2852 79.9021 38.123 79.9021 42.8171C79.9021 59.3327 69.8437 62.9698 60.2691 64.034C61.8099 65.367 63.1859 67.9865 63.1859 71.9962C63.1859 77.751 63.1357 82.3807 63.1357 83.7961C63.1357 84.9392 63.9097 86.283 66.0884 85.8601C83.1666 80.1662 95.4717 64.0555 95.4717 45.0639C95.4681 21.3135 76.2149 2.0603 52.4681 2.0603Z" fill="#00FFC2"/>
<path d="M25.7543 63.8007C25.6611 64.0157 25.3243 64.0802 25.0161 63.9333C24.7043 63.7935 24.5288 63.4997 24.6291 63.2883C24.7223 63.0697 25.0591 63.0088 25.3709 63.1557C25.6826 63.2919 25.8618 63.5857 25.7543 63.8007Z" fill="#00FFC2"/>
<path d="M27.4961 65.7434C27.2918 65.9333 26.8905 65.8437 26.6182 65.5463C26.3351 65.2453 26.2849 64.844 26.4927 64.6541C26.7042 64.4642 27.0912 64.5537 27.3742 64.8547C27.6573 65.1522 27.7111 65.5499 27.4961 65.7434Z" fill="#00FFC2"/>
<path d="M29.1909 68.2198C28.9257 68.4026 28.4957 68.2306 28.2306 67.8507C27.9654 67.4673 27.9654 67.0087 28.2377 66.8259C28.5029 66.6431 28.9293 66.808 29.1981 67.1878C29.4597 67.5748 29.4597 68.0335 29.1909 68.2198Z" fill="#00FFC2"/>
<path d="M31.5128 70.6127C31.2763 70.8743 30.7746 70.8026 30.4092 70.4479C30.0329 70.1003 29.929 69.6094 30.1655 69.3478C30.4056 69.0862 30.9108 69.1614 31.2799 69.5126C31.6526 69.8602 31.7636 70.3547 31.5128 70.6127Z" fill="#00FFC2"/>
<path d="M34.7195 71.9999C34.6156 72.3367 34.1318 72.4908 33.6445 72.3475C33.1572 72.2006 32.8382 71.8064 32.9386 71.466C33.0389 71.1256 33.5262 70.9679 34.0172 71.122C34.5009 71.2653 34.8198 71.6595 34.7195 71.9999Z" fill="#00FFC2"/>
<path d="M38.2382 72.2575C38.249 72.6122 37.8369 72.9061 37.3245 72.9132C36.8121 72.924 36.3928 72.6373 36.3892 72.2898C36.3892 71.9314 36.7941 71.6412 37.3066 71.6304C37.819 71.6197 38.2382 71.9063 38.2382 72.2575Z" fill="#00FFC2"/>
<path d="M41.5145 71.702C41.5754 72.046 41.2207 72.4044 40.7118 72.4975C40.2137 72.5907 39.7515 72.3757 39.687 72.0317C39.6261 71.6769 39.988 71.3222 40.4861 71.229C40.9913 71.1395 41.45 71.3473 41.5145 71.702Z" fill="#00FFC2"/>
</g>
<g filter="url(#filter1_i_291_278)">
<path fill-rule="evenodd" clip-rule="evenodd" d="M52.4681 2.0603C28.7214 2.0603 9.46814 21.31 9.46814 45.0603C9.46814 64.0591 21.7876 80.177 38.873 85.8637C41.023 86.2615 41.8113 84.932 41.8113 83.7961C41.8113 82.7713 41.7719 79.385 41.754 75.791C29.7928 78.3925 27.2666 70.717 27.2666 70.717C25.3101 65.7469 22.4936 64.4246 22.4936 64.4246C18.5913 61.755 22.7874 61.8124 22.7874 61.8124C27.1053 62.117 29.3771 66.245 29.3771 66.245C33.2113 72.8168 39.4356 70.9176 41.8901 69.8175C42.2771 67.0369 43.3916 65.1413 44.6206 64.0663C35.0711 62.9805 25.0306 59.2933 25.0306 42.8171C25.0306 38.123 26.7111 34.2852 29.4631 31.2752C29.0152 30.1895 27.5425 25.8178 29.8788 19.8945C29.8788 19.8945 33.4908 18.7407 41.7074 24.302C45.1366 23.3489 48.8131 22.8723 52.4681 22.8544C56.1231 22.8723 59.8032 23.3489 63.2396 24.302C71.4455 18.7371 75.0539 19.8945 75.0539 19.8945C77.3938 25.8178 75.9211 30.1895 75.4767 31.2752C78.2323 34.2852 79.9021 38.123 79.9021 42.8171C79.9021 59.3327 69.8437 62.9698 60.2691 64.034C61.8099 65.367 63.1859 67.9865 63.1859 71.9962C63.1859 77.751 63.1357 82.3807 63.1357 83.7961C63.1357 84.9392 63.9097 86.283 66.0884 85.8601C83.1666 80.1662 95.4717 64.0555 95.4717 45.0639C95.4681 21.3135 76.2149 2.0603 52.4681 2.0603Z" fill="#00FFC2"/>
<path d="M25.7543 63.8007C25.6611 64.0157 25.3243 64.0802 25.0161 63.9333C24.7043 63.7935 24.5288 63.4997 24.6291 63.2883C24.7223 63.0697 25.0591 63.0088 25.3709 63.1557C25.6826 63.2919 25.8618 63.5857 25.7543 63.8007Z" fill="#00FFC2"/>
<path d="M27.4961 65.7434C27.2918 65.9333 26.8905 65.8437 26.6182 65.5463C26.3351 65.2453 26.2849 64.844 26.4927 64.6541C26.7042 64.4642 27.0912 64.5537 27.3742 64.8547C27.6573 65.1522 27.7111 65.5499 27.4961 65.7434Z" fill="#00FFC2"/>
<path d="M29.1909 68.2198C28.9257 68.4026 28.4957 68.2306 28.2306 67.8507C27.9654 67.4673 27.9654 67.0087 28.2377 66.8259C28.5029 66.6431 28.9293 66.808 29.1981 67.1878C29.4597 67.5748 29.4597 68.0335 29.1909 68.2198Z" fill="#00FFC2"/>
<path d="M31.5128 70.6127C31.2763 70.8743 30.7746 70.8026 30.4092 70.4479C30.0329 70.1003 29.929 69.6094 30.1655 69.3478C30.4056 69.0862 30.9108 69.1614 31.2799 69.5126C31.6526 69.8602 31.7636 70.3547 31.5128 70.6127Z" fill="#00FFC2"/>
<path d="M34.7195 71.9999C34.6156 72.3367 34.1318 72.4908 33.6445 72.3475C33.1572 72.2006 32.8382 71.8064 32.9386 71.466C33.0389 71.1256 33.5262 70.9679 34.0172 71.122C34.5009 71.2653 34.8198 71.6595 34.7195 71.9999Z" fill="#00FFC2"/>
<path d="M38.2382 72.2575C38.249 72.6122 37.8369 72.9061 37.3245 72.9132C36.8121 72.924 36.3928 72.6373 36.3892 72.2898C36.3892 71.9314 36.7941 71.6412 37.3066 71.6304C37.819 71.6197 38.2382 71.9063 38.2382 72.2575Z" fill="#00FFC2"/>
<path d="M41.5145 71.702C41.5754 72.046 41.2207 72.4044 40.7118 72.4975C40.2137 72.5907 39.7515 72.3757 39.687 72.0317C39.6261 71.6769 39.988 71.3222 40.4861 71.229C40.9913 71.1395 41.45 71.3473 41.5145 71.702Z" fill="#00FFC2"/>
</g>
<defs>
<filter id="filter0_f_291_278" x="0.46814" y="-6.9397" width="104.004" height="101.879" filterUnits="userSpaceOnUse" color-interpolation-filters="sRGB">
<feFlood flood-opacity="0" result="BackgroundImageFix"/>
<feBlend mode="normal" in="SourceGraphic" in2="BackgroundImageFix" result="shape"/>
<feGaussianBlur stdDeviation="4.5" result="effect1_foregroundBlur_291_278"/>
</filter>
<filter id="filter1_i_291_278" x="9.46814" y="2.0603" width="86.0036" height="87.8794" filterUnits="userSpaceOnUse" color-interpolation-filters="sRGB">
<feFlood flood-opacity="0" result="BackgroundImageFix"/>
<feBlend mode="normal" in="SourceGraphic" in2="BackgroundImageFix" result="shape"/>
<feColorMatrix in="SourceAlpha" type="matrix" values="0 0 0 0 0 0 0 0 0 0 0 0 0 0 0 0 0 0 127 0" result="hardAlpha"/>
<feOffset dy="4"/>
<feGaussianBlur stdDeviation="2"/>
<feComposite in2="hardAlpha" operator="arithmetic" k2="-1" k3="1"/>
<feColorMatrix type="matrix" values="0 0 0 0 0.629167 0 0 0 0 1 0 0 0 0 0.84425 0 0 0 1 0"/>
<feBlend mode="normal" in2="shape" result="effect1_innerShadow_291_278"/>
</filter>
</defs>
</svg>
