<svg width="35" height="34" viewBox="0 0 35 34" fill="none" xmlns="http://www.w3.org/2000/svg">
<path fill-rule="evenodd" clip-rule="evenodd" d="M17.9052 0C8.51897 0 0.908875 7.60868 0.908875 16.9963C0.908875 24.5058 5.77831 30.8766 12.5315 33.1244C13.3813 33.2816 13.6929 32.7561 13.6929 32.3071C13.6929 31.9021 13.6773 30.5636 13.6703 29.143C8.94246 30.1713 7.94393 27.1374 7.94393 27.1374C7.17059 25.1729 6.05734 24.6503 6.05734 24.6503C4.51492 23.5951 6.17348 23.6178 6.17348 23.6178C7.88019 23.7382 8.77816 25.3698 8.77816 25.3698C10.2937 27.9674 12.7539 27.2167 13.7241 26.7819C13.877 25.6828 14.3175 24.9336 14.8033 24.5087C11.0288 24.0795 7.06012 22.6221 7.06012 16.1097C7.06012 14.2542 7.72439 12.7373 8.81215 11.5476C8.63511 11.1184 8.05299 9.39045 8.97645 7.04921C8.97645 7.04921 10.4041 6.59315 13.6518 8.79134C15.0073 8.41458 16.4605 8.22621 17.9052 8.21913C19.3499 8.22621 20.8045 8.41458 22.1627 8.79134C25.4062 6.59173 26.8325 7.04921 26.8325 7.04921C27.7574 9.39045 27.1752 11.1184 26.9996 11.5476C28.0888 12.7373 28.7488 14.2542 28.7488 16.1097C28.7488 22.6377 24.7731 24.0753 20.9886 24.4959C21.5976 25.0228 22.1415 26.0582 22.1415 27.6431C22.1415 29.9177 22.1217 31.7477 22.1217 32.3071C22.1217 32.7589 22.4276 33.2901 23.2887 33.123C30.0391 30.8724 34.9029 24.5044 34.9029 16.9977C34.9015 7.61009 27.2914 0 17.9052 0Z" fill="#A4A4A4"/>
<path d="M7.34627 24.4038C7.30944 24.4888 7.17631 24.5143 7.05451 24.4562C6.9313 24.401 6.8619 24.2849 6.90155 24.2013C6.93838 24.1149 7.07151 24.0908 7.19473 24.1489C7.31794 24.2027 7.38876 24.3189 7.34627 24.4038Z" fill="#A4A4A4"/>
<path d="M8.03451 25.1711C7.95386 25.2461 7.79538 25.2108 7.68785 25.0933C7.57607 24.9745 7.55626 24.816 7.63832 24.741C7.7218 24.666 7.87462 24.7014 7.9864 24.8202C8.09818 24.9377 8.1194 25.0947 8.03451 25.1711Z" fill="#A4A4A4"/>
<path d="M8.70504 26.1504C8.60013 26.2227 8.43001 26.1546 8.3251 26.0043C8.22019 25.8526 8.22019 25.6712 8.32793 25.5989C8.43284 25.5266 8.60155 25.5918 8.70788 25.7421C8.81137 25.8952 8.81137 26.0766 8.70504 26.1504Z" fill="#A4A4A4"/>
<path d="M9.62322 27.0969C9.52966 27.2004 9.33118 27.172 9.18657 27.0317C9.03771 26.8942 8.9966 26.6999 9.09017 26.5964C9.18515 26.4929 9.38505 26.5227 9.53107 26.6617C9.67851 26.7992 9.72246 26.9948 9.62322 27.0969Z" fill="#A4A4A4"/>
<path d="M10.8907 27.6447C10.8496 27.778 10.6582 27.8389 10.4654 27.7822C10.2726 27.7241 10.1464 27.5681 10.1861 27.4335C10.2258 27.2988 10.4186 27.2364 10.6129 27.2974C10.8043 27.3541 10.9304 27.51 10.8907 27.6447Z" fill="#A4A4A4"/>
<path d="M12.2818 27.7468C12.286 27.8872 12.1229 28.0035 11.9201 28.0064C11.7173 28.0106 11.5514 27.8972 11.55 27.7596C11.55 27.6178 11.7102 27.5029 11.913 27.4987C12.1158 27.4944 12.2818 27.6078 12.2818 27.7468Z" fill="#A4A4A4"/>
<path d="M13.5763 27.5275C13.6004 27.6636 13.46 27.8054 13.2586 27.8423C13.0615 27.8792 12.8785 27.7941 12.853 27.6579C12.8289 27.5175 12.9721 27.3771 13.1692 27.3403C13.3692 27.3048 13.5507 27.3871 13.5763 27.5275Z" fill="#A4A4A4"/>
</svg>
