<svg width="119" height="88" viewBox="0 0 119 88" fill="none" xmlns="http://www.w3.org/2000/svg">
<g filter="url(#filter0_f_291_266)">
<path fill-rule="evenodd" clip-rule="evenodd" d="M59.4673 1C35.7206 1 16.4673 20.2533 16.4673 44C16.4673 67.7467 35.7206 87 59.4673 87C83.2141 87 102.467 67.7467 102.467 44C102.467 20.2533 83.2141 1 59.4673 1ZM79.3978 30.2436C78.7528 37.0412 75.9506 53.5424 74.5281 61.157C73.9261 64.382 72.7364 65.4606 71.5897 65.5645C69.0921 65.7938 67.1966 63.9126 64.7778 62.3287C60.9938 59.8491 58.8546 58.3047 55.1816 55.8823C50.9354 53.0837 53.6874 51.5465 56.1061 49.0346C56.7404 48.3752 67.7412 38.367 67.9562 37.4604C67.9813 37.3457 68.01 36.9229 67.7556 36.7007C67.5011 36.4786 67.1321 36.5538 66.8669 36.6147C66.4871 36.7007 60.442 40.6962 48.7281 48.601C47.0117 49.7799 45.4565 50.3532 44.0626 50.3246C42.5289 50.2923 39.5762 49.4574 37.3796 48.7407C34.6886 47.8664 32.5457 47.4006 32.7321 45.9171C32.8288 45.1431 33.8931 44.3512 35.9284 43.5413C48.4629 38.0803 56.8228 34.4791 61.0046 32.7376C72.9478 27.7711 75.4275 26.9075 77.0471 26.8788C79.0753 26.8502 79.5626 28.5236 79.3978 30.2436Z" fill="#0029FF"/>
</g>
<g filter="url(#filter1_i_291_266)">
<path fill-rule="evenodd" clip-rule="evenodd" d="M59 1C35.2533 1 16 20.2533 16 44C16 67.7467 35.2533 87 59 87C82.7467 87 102 67.7467 102 44C102 20.2533 82.7467 1 59 1ZM78.9305 30.2436C78.2855 37.0412 75.4833 53.5424 74.0607 61.157C73.4587 64.382 72.2691 65.4606 71.1224 65.5645C68.6248 65.7938 66.7293 63.9126 64.3105 62.3287C60.5265 59.8491 58.3872 58.3047 54.7143 55.8823C50.4681 53.0837 53.2201 51.5465 55.6388 49.0346C56.2731 48.3752 67.2739 38.367 67.4889 37.4604C67.514 37.3457 67.5427 36.9229 67.2882 36.7007C67.0338 36.4786 66.6647 36.5538 66.3996 36.6147C66.0197 36.7007 59.9747 40.6962 48.2607 48.601C46.5443 49.7799 44.9892 50.3532 43.5953 50.3246C42.0616 50.2923 39.1089 49.4574 36.9123 48.7407C34.2212 47.8664 32.0784 47.4006 32.2647 45.9171C32.3615 45.1431 33.4258 44.3512 35.4611 43.5413C47.9956 38.0803 56.3555 34.4791 60.5373 32.7376C72.4805 27.7711 74.9602 26.9075 76.5798 26.8788C78.608 26.8502 79.0953 28.5236 78.9305 30.2436Z" fill="#0075FF"/>
</g>
<defs>
<filter id="filter0_f_291_266" x="0.467316" y="-15" width="118" height="118" filterUnits="userSpaceOnUse" color-interpolation-filters="sRGB">
<feFlood flood-opacity="0" result="BackgroundImageFix"/>
<feBlend mode="normal" in="SourceGraphic" in2="BackgroundImageFix" result="shape"/>
<feGaussianBlur stdDeviation="8" result="effect1_foregroundBlur_291_266"/>
</filter>
<filter id="filter1_i_291_266" x="16" y="1" width="87" height="91" filterUnits="userSpaceOnUse" color-interpolation-filters="sRGB">
<feFlood flood-opacity="0" result="BackgroundImageFix"/>
<feBlend mode="normal" in="SourceGraphic" in2="BackgroundImageFix" result="shape"/>
<feColorMatrix in="SourceAlpha" type="matrix" values="0 0 0 0 0 0 0 0 0 0 0 0 0 0 0 0 0 0 127 0" result="hardAlpha"/>
<feOffset dx="1" dy="5"/>
<feGaussianBlur stdDeviation="2.5"/>
<feComposite in2="hardAlpha" operator="arithmetic" k2="-1" k3="1"/>
<feColorMatrix type="matrix" values="0 0 0 0 0.4625 0 0 0 0 0.613 0 0 0 0 1 0 0 0 1 0"/>
<feBlend mode="normal" in2="shape" result="effect1_innerShadow_291_266"/>
</filter>
</defs>
</svg>
