<svg width="122" height="88" viewBox="0 0 122 88" fill="none" xmlns="http://www.w3.org/2000/svg">
<g filter="url(#filter0_f_291_263)">
<path d="M94.7506 22.377C94.8119 23.3076 94.8119 24.2425 94.8119 25.1819C94.8119 53.8789 73.1381 86.9685 33.5181 86.9685V86.9509C21.815 86.9685 10.3525 83.5903 0.5 77.2176C2.20187 77.4249 3.9125 77.5263 5.6275 77.5307C15.3313 77.5395 24.755 74.2584 32.3806 68.2164C23.1625 68.04 15.0775 61.9804 12.2556 53.1336C15.4844 53.7599 18.8094 53.632 21.9812 52.7632C11.9275 50.7168 4.7 41.8127 4.7 31.4752C4.7 31.3826 4.7 31.29 4.7 31.2018C7.69687 32.8865 11.0481 33.817 14.4781 33.9185C5.01062 27.5457 2.08812 14.8533 7.80625 4.93035C18.7437 18.4961 34.8831 26.7431 52.2037 27.6207C50.4669 20.0793 52.8425 12.1763 58.4337 6.87083C67.1094 -1.35416 80.755 -0.930779 88.9144 7.81461C93.74 6.8576 98.3644 5.07148 102.595 2.54444C100.985 7.57205 97.6206 11.8411 93.1231 14.5578C97.3975 14.0418 101.567 12.8907 105.5 11.1355C102.608 15.4971 98.9681 19.3031 94.7506 22.377Z" fill="#00E0FF"/>
</g>
<g filter="url(#filter1_i_291_263)">
<path d="M95.1482 22.3768C95.2101 23.3087 95.2101 24.245 95.2101 25.1858C95.2101 53.925 73.3299 87.0633 33.3326 87.0633V87.0456C21.518 87.0633 9.94633 83.6801 0 77.298C1.71808 77.5056 3.445 77.6072 5.17633 77.6116C14.9725 77.6204 24.486 74.3344 32.1842 68.2836C22.8783 68.1069 14.7163 62.0384 11.8676 53.1786C15.1271 53.8058 18.4837 53.6777 21.6858 52.8076C11.5363 50.7583 4.24 41.841 4.24 31.4884C4.24 31.3956 4.24 31.3029 4.24 31.2145C7.26542 32.9017 10.6486 33.8336 14.1112 33.9352C4.55358 27.5531 1.60325 14.8419 7.37583 4.90444C18.4175 18.4901 34.7106 26.7493 52.1962 27.6282C50.4427 20.0757 52.841 12.161 58.4855 6.84777C67.2437 -1.38931 81.0193 -0.965311 89.2564 7.79294C94.128 6.83452 98.7964 5.04577 103.067 2.51502C101.442 7.55002 98.0456 11.8254 93.5052 14.546C97.8203 14.0293 102.029 12.8765 106 11.1187C103.081 15.4868 99.4059 19.2984 95.1482 22.3768Z" fill="#00E0FF"/>
</g>
<defs>
<filter id="filter0_f_291_263" x="-15.5" y="-15.0315" width="137" height="118" filterUnits="userSpaceOnUse" color-interpolation-filters="sRGB">
<feFlood flood-opacity="0" result="BackgroundImageFix"/>
<feBlend mode="normal" in="SourceGraphic" in2="BackgroundImageFix" result="shape"/>
<feGaussianBlur stdDeviation="8" result="effect1_foregroundBlur_291_263"/>
</filter>
<filter id="filter1_i_291_263" x="0" y="0.936768" width="107" height="91.1265" filterUnits="userSpaceOnUse" color-interpolation-filters="sRGB">
<feFlood flood-opacity="0" result="BackgroundImageFix"/>
<feBlend mode="normal" in="SourceGraphic" in2="BackgroundImageFix" result="shape"/>
<feColorMatrix in="SourceAlpha" type="matrix" values="0 0 0 0 0 0 0 0 0 0 0 0 0 0 0 0 0 0 127 0" result="hardAlpha"/>
<feOffset dx="1" dy="5"/>
<feGaussianBlur stdDeviation="2.5"/>
<feComposite in2="hardAlpha" operator="arithmetic" k2="-1" k3="1"/>
<feColorMatrix type="matrix" values="0 0 0 0 0.4625 0 0 0 0 1 0 0 0 0 1 0 0 0 1 0"/>
<feBlend mode="normal" in2="shape" result="effect1_innerShadow_291_263"/>
</filter>
</defs>
</svg>
