<svg width="99" height="75" viewBox="0 0 99 75" fill="none" xmlns="http://www.w3.org/2000/svg">
<g clip-path="url(#clip0_291_187)">
<path d="M54.851 10.6809C53.3008 7.12062 51.8103 3.53113 50.2304 0C49.187 2.10117 48.2331 4.28988 46.981 6.27432C46.3252 4.96109 45.58 3.67704 44.8943 2.36381C44.8049 2.33463 44.6558 2.30545 44.5664 2.30545C43.1355 5.77821 41.4661 9.13424 39.8862 12.5195C41.2575 12.6362 42.6585 12.4903 44.0298 12.8113C43.1355 12.7529 42.2114 12.8113 41.3469 12.9864C36.458 13.4825 31.5989 14.1537 26.7398 14.8833C26.3821 14.8833 26.2331 15.2626 26.0542 15.4961C24.2954 18.1518 22.477 20.749 20.6884 23.4047C20.2114 24.0467 19.8835 24.8638 19.1978 25.3307C15.9485 26.2354 12.6694 26.9942 9.42006 27.8113C7.09486 28.3949 4.82928 29.0953 2.47427 29.5039L2.2954 29.6206C1.57996 29.9125 0.357727 29.7082 3.8147e-06 30.4377C2.14635 33.5603 4.26288 36.6829 6.43903 39.7763C7.63144 41.5272 9.62874 42.607 11.7155 42.9864C13.206 44.0661 14.458 45.4086 15.9783 46.4591C14.3089 44.0078 12.6694 41.5564 10.9404 39.1634C10.3442 38.3755 9.98646 37.4124 9.18158 36.8288C16.3957 34.7568 23.729 33.2101 30.9729 31.2257C33.4174 27.3735 36.1599 23.6965 38.6043 19.8444C39.6775 19.5233 40.7805 19.465 41.8835 19.2899C45.8184 18.823 49.7236 18.2101 53.6585 17.7724C54.374 16.1965 55.0894 14.6206 55.7155 12.9864C55.5664 12.1693 55.1491 11.4397 54.851 10.6809ZM52.7642 10.535C52.9133 10.8268 52.9431 11.2062 52.7344 11.4689C52.1978 12.2276 51.6613 13.0447 51.065 13.7743C50.6179 13.7451 50.3794 13.3658 50.0813 13.1031C49.4851 12.4319 48.7995 11.8482 48.2331 11.1479C48.2629 10.856 48.2927 10.5642 48.3523 10.2724C49.1274 8.72568 49.5447 7.06226 50.2304 5.51556C51.065 7.17899 51.9295 8.87159 52.7642 10.535ZM36.5474 20.0778C35.5935 21.1576 34.8184 22.4125 33.8645 23.5214C31.748 23.784 29.6911 24.3969 27.5745 24.5136C28.7669 23.2588 29.9594 21.9747 31.1816 20.749C33 20.6323 34.7588 20.1946 36.5474 20.0778Z" fill="white"/>
<path d="M81.6504 6.85797C80.4878 9.33852 79.2656 11.7899 78.0136 14.2121C77 12.607 76.1057 10.9436 75.0325 9.39688C73.6911 12.3444 72.29 15.2626 70.9485 18.2393C70.4119 19.4942 69.6369 20.6907 69.3686 22.0331C70.9485 21.7996 72.5583 21.8872 74.168 21.858C67.9079 22.821 61.6179 23.6381 55.3577 24.6595C54.7913 24.8054 53.9865 24.6303 53.5989 25.1556C50.8564 28.891 48.2331 32.7432 45.4011 36.4202C40.2737 37.7043 35.1165 39.0175 29.9892 40.3016C27.6938 40.8852 25.3686 41.4981 23.0434 42.0233C22.9539 42.1109 22.8049 42.2568 22.7453 42.3152C25.1301 45.3502 27.0678 48.6479 29.393 51.7121C30.7642 53.5214 32.6423 54.9222 34.729 55.856C36.5474 56.644 38.4851 57.1109 40.4526 57.1109C45.6098 57.4319 50.7669 57.7821 55.9539 58.0447C59.561 58.4825 63.1978 58.1615 66.8347 58.3366C64.9865 58.8327 63.168 59.3288 61.3198 59.8249C64.3008 64.9027 67.4011 69.9222 70.5312 74.9416C73.7507 70.4475 77.2981 66.216 80.607 61.7802C83.6775 57.928 86.6287 53.9591 89.729 50.107C92.71 49.9027 95.6612 49.3482 98.6423 49.1148C99.1789 49.2899 99.0894 48.6479 98.8808 48.4144C95.3035 42.6654 91.8455 36.8288 88.2981 31.0506C87.7019 30.3794 88.4472 29.5914 88.5664 28.891C88.8347 27.8113 89.4309 26.7899 89.5501 25.6517C88.5664 22.8794 87.2249 20.1945 86.122 17.4514C84.8103 14.3872 83.4986 11.2938 82.187 8.22957C81.9187 7.87937 81.71 7.38326 81.6504 6.85797ZM84.6613 21.9455C84.8103 22.3249 85.0488 22.6751 85.019 23.0837C84.5122 24.0175 83.7968 24.8054 83.2005 25.6809C82.9024 26.0311 82.7236 26.5564 82.187 26.5564C81.1436 25.3307 79.8916 24.2218 78.6694 23.142C79.5935 20.3988 80.5772 17.6556 81.561 14.9124C82.5447 17.2763 83.5881 19.6401 84.6613 21.9455ZM65.1057 30.321C64.0325 31.6342 63.0786 33.035 62.0352 34.3774C59.5908 34.786 57.1463 35.2821 54.6721 35.5739C55.9837 34.0856 57.355 32.6556 58.6965 31.2257C60.8428 30.9338 62.9594 30.5545 65.1057 30.321Z" fill="white"/>
<path d="M48.561 25.2724C46.7425 25.4475 44.9241 25.7977 43.1057 25.9728C42.1518 26.002 41.6748 26.9358 41.0488 27.5195C40.0949 28.4242 39.3496 29.5331 38.2466 30.2919C40.0054 30.4378 41.7046 29.7666 43.4336 29.5915C44.2683 29.3288 45.4011 29.6206 45.9377 28.8035C46.8022 27.6362 47.7561 26.4981 48.561 25.2724Z" fill="white"/>
</g>
<defs>
<clipPath id="clip0_291_187">
<rect width="99" height="75" fill="white" transform="matrix(-1 0 0 1 99 0)"/>
</clipPath>
</defs>
</svg>
