<svg width="108" height="80" viewBox="0 0 108 80" fill="none" xmlns="http://www.w3.org/2000/svg">
<path d="M91.5514 6.63156C84.7316 3.5621 77.4184 1.30066 69.7719 0.00543329C69.6327 -0.0195641 69.4936 0.0429058 69.4218 0.167848C68.4813 1.80874 67.4395 3.94941 66.7099 5.63196C58.4857 4.42422 50.3036 4.42422 42.2481 5.63196C41.5183 3.91201 40.4387 1.80874 39.4939 0.167848C39.4222 0.0470745 39.2831 -0.0153954 39.1438 0.00543329C31.5016 1.29652 24.1884 3.55796 17.3644 6.63156C17.3053 6.65655 17.2547 6.69823 17.2211 6.75234C3.34941 27.0805 -0.450612 46.909 1.41355 66.4917C1.42199 66.5875 1.47682 66.6791 1.55273 66.7374C10.7048 73.3301 19.5702 77.3325 28.271 79.9854C28.4102 80.0271 28.5578 79.9771 28.6464 79.8646C30.7046 77.1077 32.5392 74.2007 34.1123 71.1436C34.2051 70.9646 34.1165 70.7522 33.9268 70.6814C31.0167 69.5986 28.2457 68.2783 25.5802 66.7791C25.3693 66.6583 25.3525 66.3625 25.5464 66.2209C26.1073 65.8086 26.6684 65.3796 27.204 64.9465C27.3009 64.8674 27.4359 64.8507 27.5499 64.9007C45.0611 72.743 64.0191 72.743 81.3237 64.9007C81.4376 64.8465 81.5727 64.8632 81.6738 64.9423C82.2095 65.3755 82.7705 65.8086 83.3356 66.2209C83.5296 66.3625 83.5169 66.6583 83.3061 66.7791C80.6406 68.3074 77.8696 69.5986 74.9552 70.6773C74.7655 70.7481 74.6811 70.9646 74.7739 71.1436C76.3808 74.1964 78.2154 77.1034 80.2356 79.8605C80.32 79.9771 80.4718 80.0271 80.611 79.9854C89.354 77.3325 98.2193 73.3301 107.371 66.7374C107.452 66.6791 107.502 66.5916 107.511 66.4958C109.742 43.8561 103.774 24.1902 91.6905 6.75648C91.661 6.69823 91.6105 6.65655 91.5514 6.63156ZM36.7273 54.5679C31.4552 54.5679 27.1112 49.8202 27.1112 43.9895C27.1112 38.1587 31.371 33.411 36.7273 33.411C42.1257 33.411 46.4277 38.2004 46.3433 43.9895C46.3433 49.8202 42.0835 54.5679 36.7273 54.5679ZM72.2813 54.5679C67.0094 54.5679 62.6653 49.8202 62.6653 43.9895C62.6653 38.1587 66.925 33.411 72.2813 33.411C77.6798 33.411 81.9817 38.2004 81.8974 43.9895C81.8974 49.8202 77.6798 54.5679 72.2813 54.5679Z" fill="#00D1FF"/>
</svg>
