<svg width="35" height="28" viewBox="0 0 35 28" fill="none" xmlns="http://www.w3.org/2000/svg">
<path d="M29.6853 2.3153C27.5183 1.27936 25.1945 0.51612 22.7647 0.0789822C22.7205 0.0705456 22.6763 0.0916291 22.6535 0.133797C22.3546 0.687596 22.0236 1.41007 21.7918 1.97794C19.1785 1.57032 16.5786 1.57032 14.0188 1.97794C13.787 1.39745 13.4439 0.687596 13.1437 0.133797C13.1209 0.0930361 13.0767 0.0719525 13.0325 0.0789822C10.6041 0.514723 8.28027 1.27796 6.11188 2.3153C6.09311 2.32373 6.07702 2.3378 6.06634 2.35606C1.65853 9.21682 0.451047 15.9089 1.0434 22.5181C1.04608 22.5504 1.0635 22.5814 1.08762 22.601C3.99577 24.8261 6.81281 26.1769 9.57754 27.0722C9.62179 27.0863 9.66867 27.0694 9.69683 27.0315C10.3508 26.101 10.9338 25.1199 11.4337 24.0881C11.4632 24.0277 11.435 23.956 11.3747 23.9321C10.45 23.5667 9.56949 23.1211 8.72251 22.6151C8.65552 22.5743 8.65015 22.4745 8.71178 22.4267C8.89002 22.2875 9.06831 22.1428 9.2385 21.9966C9.26929 21.9699 9.31219 21.9643 9.3484 21.9811C14.9127 24.6279 20.9367 24.6279 26.4354 21.9811C26.4716 21.9629 26.5145 21.9685 26.5467 21.9952C26.7169 22.1414 26.8951 22.2875 27.0747 22.4267C27.1363 22.4745 27.1323 22.5743 27.0653 22.6151C26.2183 23.1309 25.3378 23.5667 24.4118 23.9307C24.3515 23.9546 24.3247 24.0277 24.3542 24.0881C24.8648 25.1184 25.4477 26.0995 26.0897 27.0301C26.1165 27.0694 26.1647 27.0863 26.209 27.0722C28.9871 26.1769 31.8041 24.8261 34.7123 22.601C34.7377 22.5814 34.7538 22.5518 34.7565 22.5195C35.4654 14.8786 33.5691 8.24134 29.7295 2.35746C29.7201 2.3378 29.7041 2.32373 29.6853 2.3153ZM12.2646 18.4938C10.5893 18.4938 9.209 16.8915 9.209 14.9236C9.209 12.9557 10.5626 11.3534 12.2646 11.3534C13.98 11.3534 15.347 12.9698 15.3201 14.9236C15.3201 16.8915 13.9666 18.4938 12.2646 18.4938ZM23.5621 18.4938C21.8869 18.4938 20.5066 16.8915 20.5066 14.9236C20.5066 12.9557 21.8601 11.3534 23.5621 11.3534C25.2775 11.3534 26.6445 12.9698 26.6177 14.9236C26.6177 16.8915 25.2775 18.4938 23.5621 18.4938Z" fill="#A4A4A4"/>
</svg>
