<svg width="34" height="34" viewBox="0 0 34 34" fill="none" xmlns="http://www.w3.org/2000/svg">
<g clip-path="url(#clip0_300_480)">
<path fill-rule="evenodd" clip-rule="evenodd" d="M17.4089 0.0771484C8.29675 0.0771484 0.908875 7.46502 0.908875 16.5772C0.908875 25.6893 8.29675 33.0772 17.4089 33.0772C26.521 33.0772 33.9089 25.6893 33.9089 16.5772C33.9089 7.46502 26.521 0.0771484 17.4089 0.0771484ZM25.0566 11.2985C24.8091 13.9069 23.7339 20.2388 23.188 23.1607C22.957 24.3982 22.5005 24.812 22.0605 24.8519C21.1021 24.9399 20.3748 24.218 19.4466 23.6103C17.9946 22.6588 17.1737 22.0662 15.7644 21.1367C14.135 20.0628 15.191 19.4729 16.1191 18.509C16.3625 18.256 20.5838 14.4157 20.6663 14.0678C20.6759 14.0238 20.6869 13.8615 20.5893 13.7763C20.4916 13.691 20.35 13.7199 20.2483 13.7433C20.1025 13.7763 17.7829 15.3094 13.288 18.3427C12.6294 18.795 12.0326 19.015 11.4978 19.004C10.9093 18.9916 9.77625 18.6713 8.93338 18.3963C7.90075 18.0608 7.0785 17.882 7.15 17.3128C7.18713 17.0158 7.5955 16.7119 8.3765 16.4011C13.1863 14.3056 16.3941 12.9238 17.9988 12.2555C22.5816 10.3498 23.5331 10.0184 24.1546 10.0074C24.9329 9.9964 25.1199 10.6385 25.0566 11.2985Z" fill="#A4A4A4"/>
</g>
<defs>
<clipPath id="clip0_300_480">
<rect width="33" height="33" fill="white" transform="translate(0.908875 0.0771484)"/>
</clipPath>
</defs>
</svg>
