<svg width="34" height="29" viewBox="0 0 34 29" fill="none" xmlns="http://www.w3.org/2000/svg">
<path d="M30.4374 7.64066C30.4572 7.93962 30.4572 8.24 30.4572 8.54179C30.4572 17.7614 23.4579 28.3921 10.6629 28.3921V28.3865C6.8835 28.3921 3.18178 27.3068 0 25.2594C0.549606 25.326 1.10204 25.3586 1.65588 25.36C4.78963 25.3629 7.83295 24.3087 10.2956 22.3676C7.31866 22.3109 4.70768 20.3642 3.79638 17.5219C4.83908 17.7231 5.91286 17.682 6.93719 17.4029C3.69041 16.7455 1.35635 13.8848 1.35635 10.5637C1.35635 10.5339 1.35635 10.5042 1.35635 10.4758C2.32417 11.0171 3.40643 11.316 4.51412 11.3486C1.45667 9.30124 0.512872 5.22348 2.35949 2.03553C5.89167 6.39382 11.1037 9.04337 16.6973 9.32532C16.1364 6.90248 16.9036 4.36344 18.7092 2.65895C21.5109 0.0164876 25.9177 0.152507 28.5527 2.96216C30.1111 2.6547 31.6045 2.08087 32.9707 1.269C32.4508 2.88423 31.3643 4.25576 29.9119 5.12855C31.2922 4.96278 32.6387 4.59298 33.9089 4.02906C32.975 5.43035 31.7995 6.65311 30.4374 7.64066Z" fill="#A4A4A4"/>
</svg>
